G04 #@! TF.GenerationSoftware,KiCad,Pcbnew,8.0.8*
G04 #@! TF.CreationDate,2025-05-20T11:36:56-04:00*
G04 #@! TF.ProjectId,project-TPS62933-breakout,70726f6a-6563-4742-9d54-505336323933,rev?*
G04 #@! TF.SameCoordinates,Original*
G04 #@! TF.FileFunction,Copper,L2,Inr*
G04 #@! TF.FilePolarity,Positive*
%FSLAX46Y46*%
G04 Gerber Fmt 4.6, Leading zero omitted, Abs format (unit mm)*
G04 Created by KiCad (PCBNEW 8.0.8) date 2025-05-20 11:36:56*
%MOMM*%
%LPD*%
G01*
G04 APERTURE LIST*
G04 #@! TA.AperFunction,ComponentPad*
%ADD10R,1.700000X1.700000*%
G04 #@! TD*
G04 #@! TA.AperFunction,ComponentPad*
%ADD11O,1.700000X1.700000*%
G04 #@! TD*
G04 #@! TA.AperFunction,ViaPad*
%ADD12C,0.600000*%
G04 #@! TD*
G04 APERTURE END LIST*
D10*
X48200000Y-21000000D03*
D11*
X50740000Y-21000000D03*
X53280000Y-21000000D03*
X55820000Y-21000000D03*
D12*
X32000000Y-26000000D03*
X31500000Y-23000000D03*
X56250000Y-39000000D03*
X56750000Y-38000000D03*
X54750000Y-39000000D03*
X32000000Y-34000000D03*
X25000000Y-36000000D03*
X54250000Y-37000000D03*
X25000000Y-31000000D03*
X31500000Y-24500000D03*
X33000000Y-29500000D03*
X32000000Y-32000000D03*
X25000000Y-20000000D03*
X30000000Y-29000000D03*
X29000000Y-34000000D03*
X29000000Y-33000000D03*
X52000000Y-36000000D03*
X42000000Y-29000000D03*
X32000000Y-30500000D03*
X25000000Y-24000000D03*
X35000000Y-39000000D03*
X52000000Y-37000000D03*
X33000000Y-22000000D03*
X47750000Y-39000000D03*
X47250000Y-38000000D03*
X39000000Y-25500000D03*
X53250000Y-37000000D03*
X29000000Y-32000000D03*
X48500000Y-39000000D03*
X42000000Y-25000000D03*
X28000000Y-29000000D03*
X52000000Y-38000000D03*
X33000000Y-20000000D03*
X41000000Y-39000000D03*
X33000000Y-28500000D03*
X29000000Y-29000000D03*
X31000000Y-30500000D03*
X32000000Y-33000000D03*
X49250000Y-39000000D03*
X42000000Y-20000000D03*
X55500000Y-39000000D03*
X38000000Y-24500000D03*
X28000000Y-39000000D03*
X35500000Y-34000000D03*
X51000000Y-39000000D03*
X35500000Y-23500000D03*
X51000000Y-35000000D03*
X27000000Y-26000000D03*
X25000000Y-28000000D03*
X25000000Y-27000000D03*
X27000000Y-27000000D03*
X26000000Y-28000000D03*
X26000000Y-27000000D03*
X25000000Y-26000000D03*
X26000000Y-26000000D03*
X27000000Y-28000000D03*
G04 #@! TA.AperFunction,Conductor*
G36*
X57004418Y-18500816D02*
G01*
X57204561Y-18515130D01*
X57222063Y-18517647D01*
X57413797Y-18559355D01*
X57430755Y-18564334D01*
X57614609Y-18632909D01*
X57630701Y-18640259D01*
X57802904Y-18734288D01*
X57817784Y-18743849D01*
X57974867Y-18861441D01*
X57988237Y-18873027D01*
X58126972Y-19011762D01*
X58138558Y-19025132D01*
X58256146Y-19182210D01*
X58265711Y-19197095D01*
X58359740Y-19369298D01*
X58367090Y-19385390D01*
X58435662Y-19569236D01*
X58440646Y-19586212D01*
X58482351Y-19777931D01*
X58484869Y-19795442D01*
X58499184Y-19995580D01*
X58499500Y-20004427D01*
X58499500Y-38995572D01*
X58499184Y-39004419D01*
X58484869Y-39204557D01*
X58482351Y-39222068D01*
X58440646Y-39413787D01*
X58435662Y-39430763D01*
X58367090Y-39614609D01*
X58359740Y-39630701D01*
X58265711Y-39802904D01*
X58256146Y-39817789D01*
X58138558Y-39974867D01*
X58126972Y-39988237D01*
X57988237Y-40126972D01*
X57974867Y-40138558D01*
X57817789Y-40256146D01*
X57802904Y-40265711D01*
X57630701Y-40359740D01*
X57614609Y-40367090D01*
X57430763Y-40435662D01*
X57413787Y-40440646D01*
X57222068Y-40482351D01*
X57204557Y-40484869D01*
X57023779Y-40497799D01*
X57004417Y-40499184D01*
X56995572Y-40499500D01*
X25004428Y-40499500D01*
X24995582Y-40499184D01*
X24973622Y-40497613D01*
X24795442Y-40484869D01*
X24777931Y-40482351D01*
X24586212Y-40440646D01*
X24569236Y-40435662D01*
X24385390Y-40367090D01*
X24369298Y-40359740D01*
X24197095Y-40265711D01*
X24182210Y-40256146D01*
X24025132Y-40138558D01*
X24011762Y-40126972D01*
X23873027Y-39988237D01*
X23861441Y-39974867D01*
X23743849Y-39817784D01*
X23734288Y-39802904D01*
X23640259Y-39630701D01*
X23632909Y-39614609D01*
X23564334Y-39430755D01*
X23559355Y-39413797D01*
X23517647Y-39222063D01*
X23515130Y-39204556D01*
X23513320Y-39179255D01*
X23500816Y-39004418D01*
X23500658Y-38999996D01*
X50194435Y-38999996D01*
X50194435Y-39000003D01*
X50214630Y-39179249D01*
X50214631Y-39179254D01*
X50274211Y-39349523D01*
X50325258Y-39430763D01*
X50370184Y-39502262D01*
X50497738Y-39629816D01*
X50650478Y-39725789D01*
X50820745Y-39785368D01*
X50820750Y-39785369D01*
X50999996Y-39805565D01*
X51000000Y-39805565D01*
X51000004Y-39805565D01*
X51179249Y-39785369D01*
X51179252Y-39785368D01*
X51179255Y-39785368D01*
X51349522Y-39725789D01*
X51502262Y-39629816D01*
X51629816Y-39502262D01*
X51725789Y-39349522D01*
X51785368Y-39179255D01*
X51805067Y-39004419D01*
X51805565Y-39000003D01*
X51805565Y-38999996D01*
X51785369Y-38820750D01*
X51785368Y-38820745D01*
X51725788Y-38650476D01*
X51629815Y-38497737D01*
X51502262Y-38370184D01*
X51349523Y-38274211D01*
X51179254Y-38214631D01*
X51179249Y-38214630D01*
X51000004Y-38194435D01*
X50999996Y-38194435D01*
X50820750Y-38214630D01*
X50820745Y-38214631D01*
X50650476Y-38274211D01*
X50497737Y-38370184D01*
X50370184Y-38497737D01*
X50274211Y-38650476D01*
X50214631Y-38820745D01*
X50214630Y-38820750D01*
X50194435Y-38999996D01*
X23500658Y-38999996D01*
X23500500Y-38995572D01*
X23500500Y-34999996D01*
X50194435Y-34999996D01*
X50194435Y-35000003D01*
X50214630Y-35179249D01*
X50214631Y-35179254D01*
X50274211Y-35349523D01*
X50370184Y-35502262D01*
X50497738Y-35629816D01*
X50650478Y-35725789D01*
X50820745Y-35785368D01*
X50820750Y-35785369D01*
X50999996Y-35805565D01*
X51000000Y-35805565D01*
X51000004Y-35805565D01*
X51179249Y-35785369D01*
X51179252Y-35785368D01*
X51179255Y-35785368D01*
X51349522Y-35725789D01*
X51502262Y-35629816D01*
X51629816Y-35502262D01*
X51725789Y-35349522D01*
X51785368Y-35179255D01*
X51805565Y-35000000D01*
X51785368Y-34820745D01*
X51725789Y-34650478D01*
X51629816Y-34497738D01*
X51502262Y-34370184D01*
X51469379Y-34349522D01*
X51349523Y-34274211D01*
X51179254Y-34214631D01*
X51179249Y-34214630D01*
X51000004Y-34194435D01*
X50999996Y-34194435D01*
X50820750Y-34214630D01*
X50820745Y-34214631D01*
X50650476Y-34274211D01*
X50497737Y-34370184D01*
X50370184Y-34497737D01*
X50274211Y-34650476D01*
X50214631Y-34820745D01*
X50214630Y-34820750D01*
X50194435Y-34999996D01*
X23500500Y-34999996D01*
X23500500Y-33999996D01*
X34694435Y-33999996D01*
X34694435Y-34000003D01*
X34714630Y-34179249D01*
X34714631Y-34179254D01*
X34774211Y-34349523D01*
X34867341Y-34497737D01*
X34870184Y-34502262D01*
X34997738Y-34629816D01*
X35150478Y-34725789D01*
X35320745Y-34785368D01*
X35320750Y-34785369D01*
X35499996Y-34805565D01*
X35500000Y-34805565D01*
X35500004Y-34805565D01*
X35679249Y-34785369D01*
X35679252Y-34785368D01*
X35679255Y-34785368D01*
X35849522Y-34725789D01*
X36002262Y-34629816D01*
X36129816Y-34502262D01*
X36225789Y-34349522D01*
X36285368Y-34179255D01*
X36305565Y-34000000D01*
X36285368Y-33820745D01*
X36225789Y-33650478D01*
X36129816Y-33497738D01*
X36002262Y-33370184D01*
X35849523Y-33274211D01*
X35679254Y-33214631D01*
X35679249Y-33214630D01*
X35500004Y-33194435D01*
X35499996Y-33194435D01*
X35320750Y-33214630D01*
X35320745Y-33214631D01*
X35150476Y-33274211D01*
X34997737Y-33370184D01*
X34870184Y-33497737D01*
X34774211Y-33650476D01*
X34714631Y-33820745D01*
X34714630Y-33820750D01*
X34694435Y-33999996D01*
X23500500Y-33999996D01*
X23500500Y-25999996D01*
X24194435Y-25999996D01*
X24194435Y-26000003D01*
X24214630Y-26179249D01*
X24214633Y-26179262D01*
X24274209Y-26349520D01*
X24327309Y-26434029D01*
X24346309Y-26501266D01*
X24327309Y-26565971D01*
X24274209Y-26650479D01*
X24214633Y-26820737D01*
X24214630Y-26820750D01*
X24194435Y-26999996D01*
X24194435Y-27000003D01*
X24214630Y-27179249D01*
X24214633Y-27179262D01*
X24274209Y-27349520D01*
X24327309Y-27434029D01*
X24346309Y-27501266D01*
X24327309Y-27565971D01*
X24274209Y-27650479D01*
X24214633Y-27820737D01*
X24214630Y-27820750D01*
X24194435Y-27999996D01*
X24194435Y-28000003D01*
X24214630Y-28179249D01*
X24214631Y-28179254D01*
X24274211Y-28349523D01*
X24370184Y-28502262D01*
X24497738Y-28629816D01*
X24650478Y-28725789D01*
X24820745Y-28785368D01*
X24820750Y-28785369D01*
X24999996Y-28805565D01*
X25000000Y-28805565D01*
X25000004Y-28805565D01*
X25179249Y-28785369D01*
X25179252Y-28785368D01*
X25179255Y-28785368D01*
X25349522Y-28725789D01*
X25434027Y-28672691D01*
X25501264Y-28653690D01*
X25565973Y-28672691D01*
X25650475Y-28725788D01*
X25820745Y-28785368D01*
X25820750Y-28785369D01*
X25999996Y-28805565D01*
X26000000Y-28805565D01*
X26000004Y-28805565D01*
X26179249Y-28785369D01*
X26179252Y-28785368D01*
X26179255Y-28785368D01*
X26349522Y-28725789D01*
X26434027Y-28672691D01*
X26501264Y-28653690D01*
X26565973Y-28672691D01*
X26650475Y-28725788D01*
X26820745Y-28785368D01*
X26820750Y-28785369D01*
X26999996Y-28805565D01*
X27000000Y-28805565D01*
X27000004Y-28805565D01*
X27179249Y-28785369D01*
X27179252Y-28785368D01*
X27179255Y-28785368D01*
X27349522Y-28725789D01*
X27502262Y-28629816D01*
X27629816Y-28502262D01*
X27725789Y-28349522D01*
X27785368Y-28179255D01*
X27805565Y-28000000D01*
X27785368Y-27820745D01*
X27725789Y-27650478D01*
X27725788Y-27650475D01*
X27672691Y-27565973D01*
X27653690Y-27498736D01*
X27672691Y-27434027D01*
X27725788Y-27349524D01*
X27725789Y-27349522D01*
X27785368Y-27179255D01*
X27805565Y-27000000D01*
X27785368Y-26820745D01*
X27725789Y-26650478D01*
X27725788Y-26650475D01*
X27672691Y-26565973D01*
X27653690Y-26498736D01*
X27672691Y-26434027D01*
X27725788Y-26349524D01*
X27725789Y-26349522D01*
X27785368Y-26179255D01*
X27805565Y-26000000D01*
X27785368Y-25820745D01*
X27725789Y-25650478D01*
X27629816Y-25497738D01*
X27502262Y-25370184D01*
X27434027Y-25327309D01*
X27349523Y-25274211D01*
X27179254Y-25214631D01*
X27179249Y-25214630D01*
X27000004Y-25194435D01*
X26999996Y-25194435D01*
X26820750Y-25214630D01*
X26820737Y-25214633D01*
X26650479Y-25274209D01*
X26565971Y-25327309D01*
X26498734Y-25346309D01*
X26434029Y-25327309D01*
X26349520Y-25274209D01*
X26179262Y-25214633D01*
X26179249Y-25214630D01*
X26000004Y-25194435D01*
X25999996Y-25194435D01*
X25820750Y-25214630D01*
X25820737Y-25214633D01*
X25650479Y-25274209D01*
X25565971Y-25327309D01*
X25498734Y-25346309D01*
X25434029Y-25327309D01*
X25349520Y-25274209D01*
X25179262Y-25214633D01*
X25179249Y-25214630D01*
X25000004Y-25194435D01*
X24999996Y-25194435D01*
X24820750Y-25214630D01*
X24820745Y-25214631D01*
X24650476Y-25274211D01*
X24497737Y-25370184D01*
X24370184Y-25497737D01*
X24274211Y-25650476D01*
X24214631Y-25820745D01*
X24214630Y-25820750D01*
X24194435Y-25999996D01*
X23500500Y-25999996D01*
X23500500Y-23499996D01*
X34694435Y-23499996D01*
X34694435Y-23500003D01*
X34714630Y-23679249D01*
X34714631Y-23679254D01*
X34774211Y-23849523D01*
X34870184Y-24002262D01*
X34997738Y-24129816D01*
X35150478Y-24225789D01*
X35320745Y-24285368D01*
X35320750Y-24285369D01*
X35499996Y-24305565D01*
X35500000Y-24305565D01*
X35500004Y-24305565D01*
X35679249Y-24285369D01*
X35679252Y-24285368D01*
X35679255Y-24285368D01*
X35849522Y-24225789D01*
X36002262Y-24129816D01*
X36129816Y-24002262D01*
X36225789Y-23849522D01*
X36285368Y-23679255D01*
X36305565Y-23500000D01*
X36285368Y-23320745D01*
X36225789Y-23150478D01*
X36129816Y-22997738D01*
X36002262Y-22870184D01*
X35849523Y-22774211D01*
X35679254Y-22714631D01*
X35679249Y-22714630D01*
X35500004Y-22694435D01*
X35499996Y-22694435D01*
X35320750Y-22714630D01*
X35320745Y-22714631D01*
X35150476Y-22774211D01*
X34997737Y-22870184D01*
X34870184Y-22997737D01*
X34774211Y-23150476D01*
X34714631Y-23320745D01*
X34714630Y-23320750D01*
X34694435Y-23499996D01*
X23500500Y-23499996D01*
X23500500Y-20102135D01*
X46849500Y-20102135D01*
X46849500Y-21897870D01*
X46849501Y-21897876D01*
X46855908Y-21957483D01*
X46906202Y-22092328D01*
X46906206Y-22092335D01*
X46992452Y-22207544D01*
X46992455Y-22207547D01*
X47107664Y-22293793D01*
X47107671Y-22293797D01*
X47242517Y-22344091D01*
X47242516Y-22344091D01*
X47249444Y-22344835D01*
X47302127Y-22350500D01*
X49097872Y-22350499D01*
X49157483Y-22344091D01*
X49292331Y-22293796D01*
X49407546Y-22207546D01*
X49493796Y-22092331D01*
X49542810Y-21960916D01*
X49584681Y-21904984D01*
X49650145Y-21880566D01*
X49718418Y-21895417D01*
X49746673Y-21916569D01*
X49868599Y-22038495D01*
X49965384Y-22106265D01*
X50062165Y-22174032D01*
X50062167Y-22174033D01*
X50062170Y-22174035D01*
X50276337Y-22273903D01*
X50504592Y-22335063D01*
X50681034Y-22350500D01*
X50739999Y-22355659D01*
X50740000Y-22355659D01*
X50740001Y-22355659D01*
X50798966Y-22350500D01*
X50975408Y-22335063D01*
X51203663Y-22273903D01*
X51417830Y-22174035D01*
X51611401Y-22038495D01*
X51778495Y-21871401D01*
X51908425Y-21685842D01*
X51963002Y-21642217D01*
X52032500Y-21635023D01*
X52094855Y-21666546D01*
X52111575Y-21685842D01*
X52241500Y-21871395D01*
X52241505Y-21871401D01*
X52408599Y-22038495D01*
X52505384Y-22106265D01*
X52602165Y-22174032D01*
X52602167Y-22174033D01*
X52602170Y-22174035D01*
X52816337Y-22273903D01*
X53044592Y-22335063D01*
X53221034Y-22350500D01*
X53279999Y-22355659D01*
X53280000Y-22355659D01*
X53280001Y-22355659D01*
X53338966Y-22350500D01*
X53515408Y-22335063D01*
X53743663Y-22273903D01*
X53957830Y-22174035D01*
X54151401Y-22038495D01*
X54318495Y-21871401D01*
X54454035Y-21677830D01*
X54553903Y-21463663D01*
X54562939Y-21429937D01*
X54599301Y-21370278D01*
X54662147Y-21339747D01*
X54731523Y-21348040D01*
X54785402Y-21392524D01*
X54793714Y-21406758D01*
X54880754Y-21581556D01*
X55003608Y-21744242D01*
X55154260Y-21881578D01*
X55327584Y-21988897D01*
X55517678Y-22062539D01*
X55570000Y-22072320D01*
X55570000Y-21433012D01*
X55627007Y-21465925D01*
X55754174Y-21500000D01*
X55885826Y-21500000D01*
X56012993Y-21465925D01*
X56070000Y-21433012D01*
X56070000Y-22072320D01*
X56122321Y-22062539D01*
X56312415Y-21988897D01*
X56485739Y-21881578D01*
X56636391Y-21744242D01*
X56759245Y-21581556D01*
X56850109Y-21399078D01*
X56850114Y-21399065D01*
X56892528Y-21250000D01*
X56253012Y-21250000D01*
X56285925Y-21192993D01*
X56320000Y-21065826D01*
X56320000Y-20934174D01*
X56285925Y-20807007D01*
X56253012Y-20750000D01*
X56892528Y-20750000D01*
X56892528Y-20749999D01*
X56850114Y-20600934D01*
X56850109Y-20600921D01*
X56759245Y-20418443D01*
X56636391Y-20255757D01*
X56485739Y-20118421D01*
X56312413Y-20011101D01*
X56122315Y-19937458D01*
X56122309Y-19937456D01*
X56070001Y-19927677D01*
X56070000Y-19927679D01*
X56070000Y-20566988D01*
X56012993Y-20534075D01*
X55885826Y-20500000D01*
X55754174Y-20500000D01*
X55627007Y-20534075D01*
X55570000Y-20566988D01*
X55570000Y-19927679D01*
X55569998Y-19927677D01*
X55517690Y-19937456D01*
X55517684Y-19937458D01*
X55327586Y-20011101D01*
X55154260Y-20118421D01*
X55003608Y-20255757D01*
X54880754Y-20418443D01*
X54793714Y-20593241D01*
X54746211Y-20644478D01*
X54678548Y-20661899D01*
X54612207Y-20639973D01*
X54568253Y-20585661D01*
X54562942Y-20570072D01*
X54553903Y-20536337D01*
X54454035Y-20322171D01*
X54448425Y-20314158D01*
X54318494Y-20128597D01*
X54151402Y-19961506D01*
X54151395Y-19961501D01*
X54117055Y-19937456D01*
X54074518Y-19907671D01*
X53957834Y-19825967D01*
X53957830Y-19825965D01*
X53957828Y-19825964D01*
X53743663Y-19726097D01*
X53743659Y-19726096D01*
X53743655Y-19726094D01*
X53515413Y-19664938D01*
X53515403Y-19664936D01*
X53280001Y-19644341D01*
X53279999Y-19644341D01*
X53044596Y-19664936D01*
X53044586Y-19664938D01*
X52816344Y-19726094D01*
X52816335Y-19726098D01*
X52602171Y-19825964D01*
X52602169Y-19825965D01*
X52408597Y-19961505D01*
X52241505Y-20128597D01*
X52111575Y-20314158D01*
X52056998Y-20357783D01*
X51987500Y-20364977D01*
X51925145Y-20333454D01*
X51908425Y-20314158D01*
X51778494Y-20128597D01*
X51611402Y-19961506D01*
X51611395Y-19961501D01*
X51577055Y-19937456D01*
X51534518Y-19907671D01*
X51417834Y-19825967D01*
X51417830Y-19825965D01*
X51417828Y-19825964D01*
X51203663Y-19726097D01*
X51203659Y-19726096D01*
X51203655Y-19726094D01*
X50975413Y-19664938D01*
X50975403Y-19664936D01*
X50740001Y-19644341D01*
X50739999Y-19644341D01*
X50504596Y-19664936D01*
X50504586Y-19664938D01*
X50276344Y-19726094D01*
X50276335Y-19726098D01*
X50062171Y-19825964D01*
X50062169Y-19825965D01*
X49868600Y-19961503D01*
X49746673Y-20083430D01*
X49685350Y-20116914D01*
X49615658Y-20111930D01*
X49559725Y-20070058D01*
X49542810Y-20039081D01*
X49493797Y-19907671D01*
X49493793Y-19907664D01*
X49407547Y-19792455D01*
X49407544Y-19792452D01*
X49292335Y-19706206D01*
X49292328Y-19706202D01*
X49157482Y-19655908D01*
X49157483Y-19655908D01*
X49097883Y-19649501D01*
X49097881Y-19649500D01*
X49097873Y-19649500D01*
X49097864Y-19649500D01*
X47302129Y-19649500D01*
X47302123Y-19649501D01*
X47242516Y-19655908D01*
X47107671Y-19706202D01*
X47107664Y-19706206D01*
X46992455Y-19792452D01*
X46992452Y-19792455D01*
X46906206Y-19907664D01*
X46906202Y-19907671D01*
X46855908Y-20042517D01*
X46849501Y-20102116D01*
X46849500Y-20102135D01*
X23500500Y-20102135D01*
X23500500Y-20004427D01*
X23500816Y-19995581D01*
X23503253Y-19961503D01*
X23515130Y-19795436D01*
X23517646Y-19777938D01*
X23559356Y-19586199D01*
X23564333Y-19569248D01*
X23632911Y-19385385D01*
X23640259Y-19369298D01*
X23702815Y-19254734D01*
X23734291Y-19197089D01*
X23743845Y-19182221D01*
X23861448Y-19025123D01*
X23873020Y-19011769D01*
X24011769Y-18873020D01*
X24025123Y-18861448D01*
X24182221Y-18743845D01*
X24197089Y-18734291D01*
X24369298Y-18640258D01*
X24385385Y-18632911D01*
X24569248Y-18564333D01*
X24586199Y-18559356D01*
X24777938Y-18517646D01*
X24795436Y-18515130D01*
X24995582Y-18500816D01*
X25004428Y-18500500D01*
X25065892Y-18500500D01*
X56934108Y-18500500D01*
X56995572Y-18500500D01*
X57004418Y-18500816D01*
G37*
G04 #@! TD.AperFunction*
M02*
