G04 #@! TF.GenerationSoftware,KiCad,Pcbnew,8.0.8*
G04 #@! TF.CreationDate,2025-05-20T11:36:56-04:00*
G04 #@! TF.ProjectId,project-TPS62933-breakout,70726f6a-6563-4742-9d54-505336323933,rev?*
G04 #@! TF.SameCoordinates,Original*
G04 #@! TF.FileFunction,Legend,Bot*
G04 #@! TF.FilePolarity,Positive*
%FSLAX46Y46*%
G04 Gerber Fmt 4.6, Leading zero omitted, Abs format (unit mm)*
G04 Created by KiCad (PCBNEW 8.0.8) date 2025-05-20 11:36:56*
%MOMM*%
%LPD*%
G01*
G04 APERTURE LIST*
%ADD10C,0.100000*%
G04 APERTURE END LIST*
D10*
G36*
X57398429Y-33745000D02*
G01*
X57590771Y-33745000D01*
X57978750Y-32642976D01*
X57780547Y-32642976D01*
X57485258Y-33536905D01*
X57172749Y-32642976D01*
X56974546Y-32642976D01*
X57398429Y-33745000D01*
G37*
G36*
X56412909Y-32666423D02*
G01*
X56744103Y-32666423D01*
X56744103Y-32525739D01*
X56668712Y-32515289D01*
X56594039Y-32501339D01*
X56519052Y-32480622D01*
X56463468Y-32453932D01*
X56413026Y-32397253D01*
X56378093Y-32327158D01*
X56352568Y-32254492D01*
X56349528Y-32244371D01*
X56227163Y-32244371D01*
X56227163Y-33745000D01*
X56412909Y-33745000D01*
X56412909Y-32666423D01*
G37*
G36*
X55404675Y-33533974D02*
G01*
X55404675Y-33745000D01*
X55624127Y-33745000D01*
X55624127Y-33533974D01*
X55404675Y-33533974D01*
G37*
G36*
X54747572Y-32247597D02*
G01*
X54819958Y-32261224D01*
X54887580Y-32288643D01*
X54949651Y-32328635D01*
X54970260Y-32345072D01*
X55023114Y-32399087D01*
X55065788Y-32459794D01*
X55068794Y-32464892D01*
X55102360Y-32535560D01*
X55126789Y-32607831D01*
X55146022Y-32683276D01*
X55149837Y-32701308D01*
X55162637Y-32776870D01*
X55171498Y-32857929D01*
X55176021Y-32933362D01*
X55177529Y-33013004D01*
X55177408Y-33036640D01*
X55174488Y-33127627D01*
X55167676Y-33212924D01*
X55156971Y-33292531D01*
X55142374Y-33366448D01*
X55118653Y-33450842D01*
X55088850Y-33526346D01*
X55052965Y-33592958D01*
X55036943Y-33617048D01*
X54983448Y-33679993D01*
X54921813Y-33728950D01*
X54852037Y-33763919D01*
X54774122Y-33784900D01*
X54688066Y-33791894D01*
X54658696Y-33791126D01*
X54575890Y-33779598D01*
X54501045Y-33754237D01*
X54434159Y-33715043D01*
X54375233Y-33662017D01*
X54324267Y-33595157D01*
X54316536Y-33582666D01*
X54281561Y-33515073D01*
X54252722Y-33438911D01*
X54230020Y-33354180D01*
X54216275Y-33280226D01*
X54206458Y-33200788D01*
X54200567Y-33115866D01*
X54198604Y-33025460D01*
X54198945Y-33008607D01*
X54388381Y-33008607D01*
X54389537Y-33085246D01*
X54394234Y-33173767D01*
X54402546Y-33254203D01*
X54414470Y-33326553D01*
X54433550Y-33402699D01*
X54462386Y-33476821D01*
X54492912Y-33528118D01*
X54549616Y-33585163D01*
X54619419Y-33618329D01*
X54692463Y-33627763D01*
X54777532Y-33612799D01*
X54848182Y-33567907D01*
X54894321Y-33510445D01*
X54931232Y-33433829D01*
X54952860Y-33363797D01*
X54969297Y-33282991D01*
X54980543Y-33191411D01*
X54986599Y-33089057D01*
X54987752Y-33014836D01*
X54987460Y-32977532D01*
X54983070Y-32872726D01*
X54973412Y-32778579D01*
X54958486Y-32695090D01*
X54930391Y-32600350D01*
X54892930Y-32524559D01*
X54846104Y-32467715D01*
X54774402Y-32423306D01*
X54688066Y-32408503D01*
X54651776Y-32410847D01*
X54571294Y-32437219D01*
X54505445Y-32492892D01*
X54463302Y-32558529D01*
X54430524Y-32642919D01*
X54412086Y-32718518D01*
X54398916Y-32804665D01*
X54391014Y-32901362D01*
X54388381Y-33008607D01*
X54198945Y-33008607D01*
X54200516Y-32930875D01*
X54206252Y-32842392D01*
X54215811Y-32760012D01*
X54229195Y-32683734D01*
X54256441Y-32580758D01*
X54292290Y-32491513D01*
X54336743Y-32415997D01*
X54389800Y-32354212D01*
X54451461Y-32306157D01*
X54521726Y-32271832D01*
X54600594Y-32251236D01*
X54688066Y-32244371D01*
X54747572Y-32247597D01*
G37*
G36*
X53713538Y-33533974D02*
G01*
X53713538Y-33745000D01*
X53932990Y-33745000D01*
X53932990Y-33533974D01*
X53713538Y-33533974D01*
G37*
G36*
X53056435Y-32247597D02*
G01*
X53128820Y-32261224D01*
X53196442Y-32288643D01*
X53258513Y-32328635D01*
X53279123Y-32345072D01*
X53331977Y-32399087D01*
X53374651Y-32459794D01*
X53377657Y-32464892D01*
X53411222Y-32535560D01*
X53435651Y-32607831D01*
X53454884Y-32683276D01*
X53458700Y-32701308D01*
X53471500Y-32776870D01*
X53480361Y-32857929D01*
X53484884Y-32933362D01*
X53486392Y-33013004D01*
X53486270Y-33036640D01*
X53483351Y-33127627D01*
X53476538Y-33212924D01*
X53465834Y-33292531D01*
X53451236Y-33366448D01*
X53427516Y-33450842D01*
X53397713Y-33526346D01*
X53361828Y-33592958D01*
X53345805Y-33617048D01*
X53292310Y-33679993D01*
X53230675Y-33728950D01*
X53160900Y-33763919D01*
X53082985Y-33784900D01*
X52996929Y-33791894D01*
X52967558Y-33791126D01*
X52884753Y-33779598D01*
X52809907Y-33754237D01*
X52743021Y-33715043D01*
X52684095Y-33662017D01*
X52633129Y-33595157D01*
X52625398Y-33582666D01*
X52590424Y-33515073D01*
X52561585Y-33438911D01*
X52538882Y-33354180D01*
X52525138Y-33280226D01*
X52515320Y-33200788D01*
X52509430Y-33115866D01*
X52507466Y-33025460D01*
X52507807Y-33008607D01*
X52697243Y-33008607D01*
X52698399Y-33085246D01*
X52703097Y-33173767D01*
X52711408Y-33254203D01*
X52723333Y-33326553D01*
X52742412Y-33402699D01*
X52771249Y-33476821D01*
X52801774Y-33528118D01*
X52858478Y-33585163D01*
X52928282Y-33618329D01*
X53001325Y-33627763D01*
X53086394Y-33612799D01*
X53157045Y-33567907D01*
X53203184Y-33510445D01*
X53240095Y-33433829D01*
X53261722Y-33363797D01*
X53278159Y-33282991D01*
X53289406Y-33191411D01*
X53295462Y-33089057D01*
X53296615Y-33014836D01*
X53296322Y-32977532D01*
X53291932Y-32872726D01*
X53282275Y-32778579D01*
X53267349Y-32695090D01*
X53239253Y-32600350D01*
X53201792Y-32524559D01*
X53154967Y-32467715D01*
X53083264Y-32423306D01*
X52996929Y-32408503D01*
X52960639Y-32410847D01*
X52880157Y-32437219D01*
X52814308Y-32492892D01*
X52772165Y-32558529D01*
X52739386Y-32642919D01*
X52720949Y-32718518D01*
X52707779Y-32804665D01*
X52699877Y-32901362D01*
X52697243Y-33008607D01*
X52507807Y-33008607D01*
X52509378Y-32930875D01*
X52515114Y-32842392D01*
X52524674Y-32760012D01*
X52538058Y-32683734D01*
X52565303Y-32580758D01*
X52601153Y-32491513D01*
X52645606Y-32415997D01*
X52698663Y-32354212D01*
X52760324Y-32306157D01*
X52830588Y-32271832D01*
X52909457Y-32251236D01*
X52996929Y-32244371D01*
X53056435Y-32247597D01*
G37*
G36*
X51805146Y-33088475D02*
G01*
X51805146Y-33229159D01*
X52313660Y-33229159D01*
X52313660Y-33088475D01*
X51805146Y-33088475D01*
G37*
G36*
X51142027Y-32408503D02*
G01*
X51215826Y-32413700D01*
X51290494Y-32434816D01*
X51354310Y-32481597D01*
X51362212Y-32491667D01*
X51399443Y-32561820D01*
X51419814Y-32639795D01*
X51426692Y-32713318D01*
X51612438Y-32713318D01*
X51606518Y-32629512D01*
X51592741Y-32553949D01*
X51562149Y-32466022D01*
X51517590Y-32392749D01*
X51459063Y-32334131D01*
X51386569Y-32290167D01*
X51300107Y-32260858D01*
X51226094Y-32248493D01*
X51144225Y-32244371D01*
X51067499Y-32248261D01*
X50986157Y-32262632D01*
X50913616Y-32287591D01*
X50841488Y-32329082D01*
X50809734Y-32355013D01*
X50756520Y-32415509D01*
X50718510Y-32486355D01*
X50697723Y-32556835D01*
X50688577Y-32635239D01*
X50688101Y-32659096D01*
X50695456Y-32740459D01*
X50717519Y-32811440D01*
X50761850Y-32881132D01*
X50826202Y-32936693D01*
X50897295Y-32973070D01*
X50827280Y-33002140D01*
X50763624Y-33041238D01*
X50710793Y-33092510D01*
X50703122Y-33102763D01*
X50666955Y-33173637D01*
X50649567Y-33245687D01*
X50643829Y-33320626D01*
X50643771Y-33329542D01*
X50648640Y-33405801D01*
X50666627Y-33487150D01*
X50697867Y-33560295D01*
X50742361Y-33625235D01*
X50782257Y-33666598D01*
X50847085Y-33715419D01*
X50920713Y-33752250D01*
X50990827Y-33774274D01*
X51067407Y-33787489D01*
X51150453Y-33791894D01*
X51232984Y-33787773D01*
X51308018Y-33775408D01*
X51396404Y-33746099D01*
X51471463Y-33702135D01*
X51533195Y-33643517D01*
X51581601Y-33570244D01*
X51616680Y-33482316D01*
X51634244Y-33406754D01*
X51644312Y-33322948D01*
X51458565Y-33322948D01*
X51447431Y-33403950D01*
X51422959Y-33478998D01*
X51381328Y-33543367D01*
X51372103Y-33553025D01*
X51310961Y-33595576D01*
X51239749Y-33618932D01*
X51162932Y-33627471D01*
X51144225Y-33627763D01*
X51067248Y-33621590D01*
X50993545Y-33600252D01*
X50926854Y-33559177D01*
X50916346Y-33549727D01*
X50869415Y-33488596D01*
X50841964Y-33413006D01*
X50833914Y-33331741D01*
X50841490Y-33254271D01*
X50870582Y-33178640D01*
X50921492Y-33121916D01*
X50994221Y-33084101D01*
X51071496Y-33067031D01*
X51144225Y-33062829D01*
X51222260Y-33065027D01*
X51245341Y-33065027D01*
X51245341Y-32900896D01*
X51163276Y-32896957D01*
X51083225Y-32887517D01*
X51010685Y-32870602D01*
X50961775Y-32849972D01*
X50907692Y-32797051D01*
X50882242Y-32721368D01*
X50878244Y-32665324D01*
X50886600Y-32589604D01*
X50914772Y-32520430D01*
X50948953Y-32477745D01*
X51009248Y-32435551D01*
X51084072Y-32412830D01*
X51142027Y-32408503D01*
G37*
G36*
X49939619Y-33088475D02*
G01*
X49939619Y-33229159D01*
X50448133Y-33229159D01*
X50448133Y-33088475D01*
X49939619Y-33088475D01*
G37*
G36*
X49376363Y-32623553D02*
G01*
X49459235Y-32642712D01*
X49534324Y-32677649D01*
X49601628Y-32728364D01*
X49653122Y-32784392D01*
X49683519Y-32827120D01*
X49721515Y-32897221D01*
X49750392Y-32974535D01*
X49770150Y-33059063D01*
X49779649Y-33135012D01*
X49782815Y-33215969D01*
X49781666Y-33263971D01*
X49774641Y-33339938D01*
X49757781Y-33424439D01*
X49731725Y-33501676D01*
X49696472Y-33571649D01*
X49652023Y-33634357D01*
X49618335Y-33671280D01*
X49554614Y-33724049D01*
X49484828Y-33761741D01*
X49408976Y-33784356D01*
X49327058Y-33791894D01*
X49289165Y-33790245D01*
X49212896Y-33775362D01*
X49144609Y-33745000D01*
X49090810Y-33705998D01*
X49038223Y-33652971D01*
X48991468Y-33592592D01*
X48991468Y-33651943D01*
X48991725Y-33678125D01*
X48995567Y-33751571D01*
X49005878Y-33827589D01*
X49025347Y-33901714D01*
X49057048Y-33968848D01*
X49080164Y-33998928D01*
X49142818Y-34043794D01*
X49217927Y-34066736D01*
X49299581Y-34073262D01*
X49355944Y-34070331D01*
X49428252Y-34054944D01*
X49494054Y-34020322D01*
X49544784Y-33958773D01*
X49567759Y-33885683D01*
X49746912Y-33885683D01*
X49739854Y-33932141D01*
X49714664Y-34007560D01*
X49673419Y-34072430D01*
X49616120Y-34126751D01*
X49601298Y-34137310D01*
X49535913Y-34172733D01*
X49460774Y-34197256D01*
X49387026Y-34209773D01*
X49305809Y-34213946D01*
X49286785Y-34213771D01*
X49206385Y-34208664D01*
X49127044Y-34194697D01*
X49051919Y-34169249D01*
X49004841Y-34144153D01*
X48945902Y-34095519D01*
X48900976Y-34033695D01*
X48875030Y-33981312D01*
X48848188Y-33907501D01*
X48831367Y-33835858D01*
X48825879Y-33801263D01*
X48817693Y-33724398D01*
X48813507Y-33646470D01*
X48812316Y-33570244D01*
X48812316Y-33211939D01*
X48991468Y-33211939D01*
X48995308Y-33293036D01*
X49009098Y-33375886D01*
X49032917Y-33448248D01*
X49071702Y-33517121D01*
X49087264Y-33536894D01*
X49146627Y-33588757D01*
X49217510Y-33619011D01*
X49291154Y-33627763D01*
X49326102Y-33626000D01*
X49397744Y-33609140D01*
X49465994Y-33569470D01*
X49517201Y-33514923D01*
X49522250Y-33507789D01*
X49560478Y-33436240D01*
X49583559Y-33361548D01*
X49595340Y-33287627D01*
X49599267Y-33205711D01*
X49599187Y-33193632D01*
X49594138Y-33113502D01*
X49581235Y-33041121D01*
X49556872Y-32967888D01*
X49517201Y-32897599D01*
X49501227Y-32877237D01*
X49440490Y-32823828D01*
X49368234Y-32792672D01*
X49293353Y-32783660D01*
X49266992Y-32784651D01*
X49187307Y-32802283D01*
X49120217Y-32841953D01*
X49070603Y-32896500D01*
X49065734Y-32903640D01*
X49028872Y-32975791D01*
X49006615Y-33051845D01*
X48995255Y-33127597D01*
X48991468Y-33211939D01*
X48812316Y-33211939D01*
X48812316Y-32642976D01*
X48995865Y-32642976D01*
X48974616Y-32812602D01*
X49026342Y-32746987D01*
X49083426Y-32694948D01*
X49156796Y-32651393D01*
X49237459Y-32626316D01*
X49312404Y-32619528D01*
X49376363Y-32623553D01*
G37*
G36*
X48585903Y-32760212D02*
G01*
X48579073Y-32668026D01*
X48564076Y-32584907D01*
X48540913Y-32510856D01*
X48497327Y-32426226D01*
X48439224Y-32357715D01*
X48366604Y-32305325D01*
X48279467Y-32269055D01*
X48204587Y-32252431D01*
X48121541Y-32244875D01*
X48092044Y-32244371D01*
X48014919Y-32248751D01*
X47932102Y-32264929D01*
X47856999Y-32293029D01*
X47789609Y-32333050D01*
X47746196Y-32368935D01*
X47694377Y-32426760D01*
X47655285Y-32491563D01*
X47628921Y-32563343D01*
X47615284Y-32642100D01*
X47613206Y-32690237D01*
X47620934Y-32776345D01*
X47644118Y-32857212D01*
X47682758Y-32932837D01*
X47736854Y-33003221D01*
X47791259Y-33055754D01*
X47855556Y-33104932D01*
X47929745Y-33150757D01*
X48140771Y-33266894D01*
X48204426Y-33304195D01*
X48270343Y-33350112D01*
X48325331Y-33399712D01*
X48337142Y-33413073D01*
X48377751Y-33475054D01*
X48403727Y-33545500D01*
X48410781Y-33580868D01*
X47623464Y-33580868D01*
X47623464Y-33745000D01*
X48619609Y-33745000D01*
X48613804Y-33671804D01*
X48602092Y-33591123D01*
X48585202Y-33518248D01*
X48558953Y-33443092D01*
X48520324Y-33370209D01*
X48467865Y-33304332D01*
X48406824Y-33246802D01*
X48343257Y-33197575D01*
X48282355Y-33156611D01*
X48214243Y-33115701D01*
X48199755Y-33107526D01*
X48005582Y-32995785D01*
X47936730Y-32949142D01*
X47882123Y-32897965D01*
X47836420Y-32832529D01*
X47810105Y-32760922D01*
X47802983Y-32694633D01*
X47812983Y-32615103D01*
X47842984Y-32545271D01*
X47887613Y-32490202D01*
X47950523Y-32443688D01*
X48023390Y-32416481D01*
X48098272Y-32408503D01*
X48179638Y-32417089D01*
X48248339Y-32442849D01*
X48314061Y-32496430D01*
X48354898Y-32559971D01*
X48383069Y-32640686D01*
X48396487Y-32717622D01*
X48400157Y-32760212D01*
X48585903Y-32760212D01*
G37*
G36*
X47419399Y-32760212D02*
G01*
X47412569Y-32668026D01*
X47397572Y-32584907D01*
X47374410Y-32510856D01*
X47330824Y-32426226D01*
X47272721Y-32357715D01*
X47200100Y-32305325D01*
X47112963Y-32269055D01*
X47038083Y-32252431D01*
X46955037Y-32244875D01*
X46925540Y-32244371D01*
X46848415Y-32248751D01*
X46765598Y-32264929D01*
X46690495Y-32293029D01*
X46623105Y-32333050D01*
X46579692Y-32368935D01*
X46527873Y-32426760D01*
X46488781Y-32491563D01*
X46462417Y-32563343D01*
X46448780Y-32642100D01*
X46446702Y-32690237D01*
X46454430Y-32776345D01*
X46477614Y-32857212D01*
X46516254Y-32932837D01*
X46570350Y-33003221D01*
X46624755Y-33055754D01*
X46689052Y-33104932D01*
X46763241Y-33150757D01*
X46974267Y-33266894D01*
X47037923Y-33304195D01*
X47103840Y-33350112D01*
X47158827Y-33399712D01*
X47170638Y-33413073D01*
X47211247Y-33475054D01*
X47237223Y-33545500D01*
X47244277Y-33580868D01*
X46456960Y-33580868D01*
X46456960Y-33745000D01*
X47453105Y-33745000D01*
X47447300Y-33671804D01*
X47435588Y-33591123D01*
X47418698Y-33518248D01*
X47392449Y-33443092D01*
X47353820Y-33370209D01*
X47301361Y-33304332D01*
X47240321Y-33246802D01*
X47176754Y-33197575D01*
X47115851Y-33156611D01*
X47047739Y-33115701D01*
X47033251Y-33107526D01*
X46839078Y-32995785D01*
X46770226Y-32949142D01*
X46715619Y-32897965D01*
X46669916Y-32832529D01*
X46643602Y-32760922D01*
X46636479Y-32694633D01*
X46646479Y-32615103D01*
X46676480Y-32545271D01*
X46721109Y-32490202D01*
X46784019Y-32443688D01*
X46856886Y-32416481D01*
X46931769Y-32408503D01*
X47013134Y-32417089D01*
X47081835Y-32442849D01*
X47147557Y-32496430D01*
X47188394Y-32559971D01*
X47216565Y-32640686D01*
X47229983Y-32717622D01*
X47233653Y-32760212D01*
X47419399Y-32760212D01*
G37*
G36*
X45480600Y-32789888D02*
G01*
X45526586Y-32731992D01*
X45590557Y-32679587D01*
X45665642Y-32643485D01*
X45738848Y-32625518D01*
X45820219Y-32619528D01*
X45897989Y-32625067D01*
X45969730Y-32641682D01*
X46045810Y-32675066D01*
X46113686Y-32723527D01*
X46165334Y-32777065D01*
X46195731Y-32818064D01*
X46233727Y-32885615D01*
X46262604Y-32960430D01*
X46282362Y-33042510D01*
X46291861Y-33116459D01*
X46295027Y-33195453D01*
X46293018Y-33262950D01*
X46284855Y-33342153D01*
X46270414Y-33415614D01*
X46244795Y-33496187D01*
X46210135Y-33568491D01*
X46166434Y-33632526D01*
X46114750Y-33686686D01*
X46046054Y-33735711D01*
X45968311Y-33769483D01*
X45894474Y-33786291D01*
X45813991Y-33791894D01*
X45765615Y-33789738D01*
X45689537Y-33776008D01*
X45616887Y-33746831D01*
X45560845Y-33709011D01*
X45507573Y-33657510D01*
X45461549Y-33598820D01*
X45461549Y-33745000D01*
X45305478Y-33745000D01*
X45305478Y-33209741D01*
X45480600Y-33209741D01*
X45484649Y-33289014D01*
X45499195Y-33370811D01*
X45524320Y-33443219D01*
X45565230Y-33513457D01*
X45581512Y-33533885D01*
X45642764Y-33587466D01*
X45714749Y-33618721D01*
X45788712Y-33627763D01*
X45832778Y-33624945D01*
X45905108Y-33605674D01*
X45968456Y-33568145D01*
X46022819Y-33512358D01*
X46033555Y-33497636D01*
X46069573Y-33432824D01*
X46094509Y-33358532D01*
X46107236Y-33285751D01*
X46111479Y-33205711D01*
X46111392Y-33193967D01*
X46105938Y-33115723D01*
X46089314Y-33034802D01*
X46061608Y-32962949D01*
X46022819Y-32900163D01*
X45999801Y-32872858D01*
X45941773Y-32824732D01*
X45867169Y-32792875D01*
X45790910Y-32783660D01*
X45764897Y-32784674D01*
X45685442Y-32802706D01*
X45617149Y-32843278D01*
X45565230Y-32899064D01*
X45554982Y-32913802D01*
X45520601Y-32978992D01*
X45496798Y-33054165D01*
X45484649Y-33128132D01*
X45480600Y-33209741D01*
X45305478Y-33209741D01*
X45305478Y-32197477D01*
X45480600Y-32197477D01*
X45480600Y-32789888D01*
G37*
G36*
X44643281Y-32620162D02*
G01*
X44724172Y-32629672D01*
X44798597Y-32650594D01*
X44866556Y-32682927D01*
X44928049Y-32726671D01*
X44983077Y-32781828D01*
X45015449Y-32823954D01*
X45055913Y-32893304D01*
X45086666Y-32970047D01*
X45107708Y-33054184D01*
X45117824Y-33129945D01*
X45121196Y-33210840D01*
X45120011Y-33259886D01*
X45112770Y-33337351D01*
X45095391Y-33423247D01*
X45068531Y-33501442D01*
X45032193Y-33571934D01*
X44986374Y-33634724D01*
X44969096Y-33653756D01*
X44912712Y-33703486D01*
X44849501Y-33742164D01*
X44779464Y-33769792D01*
X44702601Y-33786369D01*
X44618911Y-33791894D01*
X44595444Y-33791508D01*
X44517320Y-33784070D01*
X44445437Y-33767165D01*
X44370928Y-33736253D01*
X44304570Y-33692976D01*
X44296874Y-33686717D01*
X44241690Y-33631132D01*
X44197864Y-33565748D01*
X44165395Y-33490563D01*
X44146301Y-33416737D01*
X44323621Y-33416737D01*
X44350192Y-33477531D01*
X44398961Y-33545331D01*
X44461229Y-33592935D01*
X44536996Y-33620344D01*
X44612683Y-33627763D01*
X44640212Y-33626865D01*
X44715997Y-33613389D01*
X44788240Y-33579450D01*
X44847889Y-33525547D01*
X44881360Y-33477550D01*
X44913010Y-33406204D01*
X44930389Y-33333687D01*
X44937648Y-33252606D01*
X44123220Y-33252606D01*
X44123700Y-33213657D01*
X44130396Y-33111922D01*
X44310799Y-33111922D01*
X44933618Y-33111922D01*
X44930959Y-33084361D01*
X44914985Y-33008092D01*
X44883164Y-32934633D01*
X44836531Y-32873053D01*
X44825542Y-32862228D01*
X44765142Y-32818579D01*
X44695654Y-32792389D01*
X44617079Y-32783660D01*
X44600637Y-32784029D01*
X44523879Y-32796952D01*
X44456209Y-32828336D01*
X44397627Y-32878182D01*
X44382110Y-32896235D01*
X44341409Y-32962181D01*
X44317667Y-33036999D01*
X44310799Y-33111922D01*
X44130396Y-33111922D01*
X44130902Y-33104228D01*
X44146747Y-33005928D01*
X44171234Y-32918756D01*
X44204363Y-32842713D01*
X44246135Y-32777798D01*
X44296550Y-32724011D01*
X44377213Y-32669606D01*
X44447793Y-32641785D01*
X44527016Y-32625093D01*
X44614881Y-32619528D01*
X44643281Y-32620162D01*
G37*
G36*
X43563570Y-32620902D02*
G01*
X43658138Y-32631893D01*
X43739654Y-32653875D01*
X43808118Y-32686848D01*
X43875345Y-32743520D01*
X43922178Y-32817365D01*
X43944961Y-32888806D01*
X43954692Y-32971238D01*
X43777372Y-32971238D01*
X43775838Y-32959348D01*
X43753558Y-32887341D01*
X43703367Y-32829089D01*
X43667990Y-32809214D01*
X43594776Y-32789028D01*
X43517620Y-32783660D01*
X43482060Y-32784644D01*
X43407374Y-32795033D01*
X43335170Y-32823960D01*
X43288888Y-32869711D01*
X43270690Y-32940830D01*
X43270690Y-32985526D01*
X43271674Y-33001263D01*
X43310990Y-33064295D01*
X43380885Y-33090276D01*
X43454605Y-33102397D01*
X43485575Y-33107300D01*
X43560118Y-33118517D01*
X43579300Y-33121334D01*
X43652808Y-33133538D01*
X43668058Y-33136142D01*
X43741468Y-33151489D01*
X43743070Y-33151933D01*
X43814375Y-33174570D01*
X43881786Y-33208276D01*
X43931612Y-33252606D01*
X43972644Y-33310858D01*
X43993527Y-33383032D01*
X43996764Y-33398715D01*
X44003053Y-33473524D01*
X44002190Y-33500342D01*
X43989245Y-33574537D01*
X43956644Y-33645964D01*
X43904867Y-33705799D01*
X43865639Y-33735058D01*
X43797764Y-33767596D01*
X43719052Y-33786513D01*
X43639986Y-33791894D01*
X43615292Y-33791287D01*
X43542189Y-33782185D01*
X43470555Y-33762161D01*
X43400389Y-33731215D01*
X43331691Y-33689346D01*
X43264462Y-33636556D01*
X43251908Y-33690926D01*
X43210607Y-33754525D01*
X43157117Y-33782552D01*
X43083112Y-33791894D01*
X43037210Y-33788458D01*
X42962944Y-33773942D01*
X42962944Y-33647180D01*
X43000680Y-33651210D01*
X43065545Y-33634801D01*
X43095568Y-33565481D01*
X43095568Y-33404647D01*
X43270690Y-33404647D01*
X43276506Y-33447741D01*
X43310766Y-33514838D01*
X43363747Y-33568778D01*
X43381593Y-33582397D01*
X43447825Y-33618117D01*
X43524432Y-33638954D01*
X43602250Y-33644982D01*
X43621216Y-33644573D01*
X43694024Y-33633350D01*
X43762718Y-33598454D01*
X43805307Y-33542125D01*
X43819504Y-33466929D01*
X43803659Y-33391275D01*
X43756123Y-33334305D01*
X43689078Y-33295562D01*
X43614706Y-33274588D01*
X43579198Y-33268945D01*
X43505999Y-33257443D01*
X43430059Y-33245645D01*
X43416943Y-33243566D01*
X43341944Y-33229143D01*
X43270690Y-33207909D01*
X43270690Y-33404647D01*
X43095568Y-33404647D01*
X43095568Y-32921779D01*
X43096496Y-32894652D01*
X43110406Y-32820765D01*
X43145440Y-32751858D01*
X43201081Y-32696831D01*
X43214658Y-32687470D01*
X43285353Y-32652820D01*
X43361379Y-32632286D01*
X43438083Y-32622246D01*
X43511392Y-32619528D01*
X43563570Y-32620902D01*
G37*
G36*
X42379692Y-32666423D02*
G01*
X42710886Y-32666423D01*
X42710886Y-32525739D01*
X42635495Y-32515289D01*
X42560822Y-32501339D01*
X42485835Y-32480622D01*
X42430251Y-32453932D01*
X42379809Y-32397253D01*
X42344876Y-32327158D01*
X42319351Y-32254492D01*
X42316311Y-32244371D01*
X42193946Y-32244371D01*
X42193946Y-33745000D01*
X42379692Y-33745000D01*
X42379692Y-32666423D01*
G37*
G36*
X41256941Y-32620902D02*
G01*
X41351508Y-32631893D01*
X41433024Y-32653875D01*
X41501489Y-32686848D01*
X41568715Y-32743520D01*
X41615548Y-32817365D01*
X41638331Y-32888806D01*
X41648063Y-32971238D01*
X41470743Y-32971238D01*
X41469209Y-32959348D01*
X41446929Y-32887341D01*
X41396737Y-32829089D01*
X41361360Y-32809214D01*
X41288147Y-32789028D01*
X41210990Y-32783660D01*
X41175431Y-32784644D01*
X41100744Y-32795033D01*
X41028541Y-32823960D01*
X40982259Y-32869711D01*
X40964061Y-32940830D01*
X40964061Y-32985526D01*
X40965045Y-33001263D01*
X41004361Y-33064295D01*
X41074256Y-33090276D01*
X41147976Y-33102397D01*
X41178946Y-33107300D01*
X41253489Y-33118517D01*
X41272670Y-33121334D01*
X41346179Y-33133538D01*
X41361429Y-33136142D01*
X41434839Y-33151489D01*
X41436441Y-33151933D01*
X41507745Y-33174570D01*
X41575157Y-33208276D01*
X41624982Y-33252606D01*
X41666015Y-33310858D01*
X41686898Y-33383032D01*
X41690135Y-33398715D01*
X41696423Y-33473524D01*
X41695560Y-33500342D01*
X41682616Y-33574537D01*
X41650015Y-33645964D01*
X41598237Y-33705799D01*
X41559009Y-33735058D01*
X41491135Y-33767596D01*
X41412422Y-33786513D01*
X41333356Y-33791894D01*
X41308662Y-33791287D01*
X41235560Y-33782185D01*
X41163925Y-33762161D01*
X41093760Y-33731215D01*
X41025062Y-33689346D01*
X40957833Y-33636556D01*
X40945279Y-33690926D01*
X40903977Y-33754525D01*
X40850488Y-33782552D01*
X40776482Y-33791894D01*
X40730581Y-33788458D01*
X40656315Y-33773942D01*
X40656315Y-33647180D01*
X40694050Y-33651210D01*
X40758916Y-33634801D01*
X40788939Y-33565481D01*
X40788939Y-33404647D01*
X40964061Y-33404647D01*
X40969877Y-33447741D01*
X41004137Y-33514838D01*
X41057117Y-33568778D01*
X41074964Y-33582397D01*
X41141196Y-33618117D01*
X41217803Y-33638954D01*
X41295621Y-33644982D01*
X41314586Y-33644573D01*
X41387395Y-33633350D01*
X41456088Y-33598454D01*
X41498678Y-33542125D01*
X41512875Y-33466929D01*
X41497029Y-33391275D01*
X41449494Y-33334305D01*
X41382449Y-33295562D01*
X41308077Y-33274588D01*
X41272569Y-33268945D01*
X41199370Y-33257443D01*
X41123429Y-33245645D01*
X41110313Y-33243566D01*
X41035314Y-33229143D01*
X40964061Y-33207909D01*
X40964061Y-33404647D01*
X40788939Y-33404647D01*
X40788939Y-32921779D01*
X40789866Y-32894652D01*
X40803777Y-32820765D01*
X40838810Y-32751858D01*
X40894452Y-32696831D01*
X40908029Y-32687470D01*
X40978724Y-32652820D01*
X41054750Y-32632286D01*
X41131454Y-32622246D01*
X41204762Y-32619528D01*
X41256941Y-32620902D01*
G37*
M02*
