G04 #@! TF.GenerationSoftware,KiCad,Pcbnew,8.0.8*
G04 #@! TF.CreationDate,2025-05-21T17:39:24-04:00*
G04 #@! TF.ProjectId,project-TPS62933-breakout,70726f6a-6563-4742-9d54-505336323933,rev?*
G04 #@! TF.SameCoordinates,Original*
G04 #@! TF.FileFunction,Copper,L1,Top*
G04 #@! TF.FilePolarity,Positive*
%FSLAX46Y46*%
G04 Gerber Fmt 4.6, Leading zero omitted, Abs format (unit mm)*
G04 Created by KiCad (PCBNEW 8.0.8) date 2025-05-21 17:39:24*
%MOMM*%
%LPD*%
G01*
G04 APERTURE LIST*
G04 Aperture macros list*
%AMRoundRect*
0 Rectangle with rounded corners*
0 $1 Rounding radius*
0 $2 $3 $4 $5 $6 $7 $8 $9 X,Y pos of 4 corners*
0 Add a 4 corners polygon primitive as box body*
4,1,4,$2,$3,$4,$5,$6,$7,$8,$9,$2,$3,0*
0 Add four circle primitives for the rounded corners*
1,1,$1+$1,$2,$3*
1,1,$1+$1,$4,$5*
1,1,$1+$1,$6,$7*
1,1,$1+$1,$8,$9*
0 Add four rect primitives between the rounded corners*
20,1,$1+$1,$2,$3,$4,$5,0*
20,1,$1+$1,$4,$5,$6,$7,0*
20,1,$1+$1,$6,$7,$8,$9,0*
20,1,$1+$1,$8,$9,$2,$3,0*%
G04 Aperture macros list end*
G04 #@! TA.AperFunction,SMDPad,CuDef*
%ADD10RoundRect,0.050000X-0.285000X-0.100000X0.285000X-0.100000X0.285000X0.100000X-0.285000X0.100000X0*%
G04 #@! TD*
G04 #@! TA.AperFunction,ComponentPad*
%ADD11R,1.700000X1.700000*%
G04 #@! TD*
G04 #@! TA.AperFunction,ComponentPad*
%ADD12O,1.700000X1.700000*%
G04 #@! TD*
G04 #@! TA.AperFunction,SMDPad,CuDef*
%ADD13RoundRect,0.250000X0.325000X1.100000X-0.325000X1.100000X-0.325000X-1.100000X0.325000X-1.100000X0*%
G04 #@! TD*
G04 #@! TA.AperFunction,SMDPad,CuDef*
%ADD14RoundRect,0.088500X-0.516500X-0.206500X0.516500X-0.206500X0.516500X0.206500X-0.516500X0.206500X0*%
G04 #@! TD*
G04 #@! TA.AperFunction,SMDPad,CuDef*
%ADD15RoundRect,0.200000X-0.275000X0.200000X-0.275000X-0.200000X0.275000X-0.200000X0.275000X0.200000X0*%
G04 #@! TD*
G04 #@! TA.AperFunction,SMDPad,CuDef*
%ADD16RoundRect,0.250000X-1.100000X0.325000X-1.100000X-0.325000X1.100000X-0.325000X1.100000X0.325000X0*%
G04 #@! TD*
G04 #@! TA.AperFunction,SMDPad,CuDef*
%ADD17RoundRect,0.225000X-0.250000X0.225000X-0.250000X-0.225000X0.250000X-0.225000X0.250000X0.225000X0*%
G04 #@! TD*
G04 #@! TA.AperFunction,SMDPad,CuDef*
%ADD18RoundRect,0.250000X-0.475000X0.250000X-0.475000X-0.250000X0.475000X-0.250000X0.475000X0.250000X0*%
G04 #@! TD*
G04 #@! TA.AperFunction,SMDPad,CuDef*
%ADD19RoundRect,0.250000X-1.075000X0.375000X-1.075000X-0.375000X1.075000X-0.375000X1.075000X0.375000X0*%
G04 #@! TD*
G04 #@! TA.AperFunction,SMDPad,CuDef*
%ADD20RoundRect,0.225000X0.225000X0.250000X-0.225000X0.250000X-0.225000X-0.250000X0.225000X-0.250000X0*%
G04 #@! TD*
G04 #@! TA.AperFunction,SMDPad,CuDef*
%ADD21RoundRect,0.225000X-0.225000X-0.250000X0.225000X-0.250000X0.225000X0.250000X-0.225000X0.250000X0*%
G04 #@! TD*
G04 #@! TA.AperFunction,SMDPad,CuDef*
%ADD22RoundRect,0.200000X0.275000X-0.200000X0.275000X0.200000X-0.275000X0.200000X-0.275000X-0.200000X0*%
G04 #@! TD*
G04 #@! TA.AperFunction,ViaPad*
%ADD23C,0.600000*%
G04 #@! TD*
G04 #@! TA.AperFunction,Conductor*
%ADD24C,0.260000*%
G04 #@! TD*
G04 #@! TA.AperFunction,Conductor*
%ADD25C,0.200000*%
G04 #@! TD*
G04 #@! TA.AperFunction,Conductor*
%ADD26C,0.500000*%
G04 #@! TD*
G04 APERTURE END LIST*
D10*
X33260000Y-26250000D03*
X33260000Y-26750000D03*
X33260000Y-27250000D03*
X33260000Y-27750000D03*
X34740000Y-27750000D03*
X34740000Y-27250000D03*
X34740000Y-26750000D03*
X34740000Y-26250000D03*
D11*
X48200000Y-21000000D03*
D12*
X50740000Y-21000000D03*
X53280000Y-21000000D03*
X55820000Y-21000000D03*
D13*
X33475000Y-33000000D03*
X30525000Y-33000000D03*
D14*
X50745000Y-36050000D03*
X50745000Y-37000000D03*
X50745000Y-37950000D03*
X53255000Y-37950000D03*
X53255000Y-36050000D03*
D15*
X34500000Y-23175000D03*
X34500000Y-24825000D03*
D16*
X29000000Y-27525000D03*
X29000000Y-30475000D03*
D17*
X31500000Y-27725000D03*
X31500000Y-29275000D03*
D18*
X55500000Y-36050000D03*
X55500000Y-37950000D03*
D19*
X36000000Y-29600000D03*
X36000000Y-32400000D03*
D20*
X33275000Y-35500000D03*
X31725000Y-35500000D03*
D21*
X36225000Y-26000000D03*
X37775000Y-26000000D03*
D22*
X33000000Y-24825000D03*
X33000000Y-23175000D03*
D18*
X48500000Y-36050000D03*
X48500000Y-37950000D03*
D21*
X36225000Y-27500000D03*
X37775000Y-27500000D03*
D23*
X32000000Y-26000000D03*
X31500000Y-23000000D03*
X56250000Y-39000000D03*
X56750000Y-38000000D03*
X54750000Y-39000000D03*
X32000000Y-34000000D03*
X25000000Y-36000000D03*
X54250000Y-37000000D03*
X25000000Y-31000000D03*
X31500000Y-24500000D03*
X33000000Y-29500000D03*
X32000000Y-32000000D03*
X25000000Y-20000000D03*
X30000000Y-29000000D03*
X29000000Y-34000000D03*
X29000000Y-33000000D03*
X52000000Y-36000000D03*
X42000000Y-29000000D03*
X32000000Y-30500000D03*
X25000000Y-24000000D03*
X35000000Y-39000000D03*
X52000000Y-37000000D03*
X33000000Y-22000000D03*
X47750000Y-39000000D03*
X47250000Y-38000000D03*
X39000000Y-25500000D03*
X53250000Y-37000000D03*
X29000000Y-32000000D03*
X48500000Y-39000000D03*
X42000000Y-25000000D03*
X28000000Y-29000000D03*
X52000000Y-38000000D03*
X33000000Y-20000000D03*
X41000000Y-39000000D03*
X33000000Y-28500000D03*
X29000000Y-29000000D03*
X31000000Y-30500000D03*
X32000000Y-33000000D03*
X49250000Y-39000000D03*
X42000000Y-20000000D03*
X55500000Y-39000000D03*
X38000000Y-24500000D03*
X28000000Y-39000000D03*
X35500000Y-34000000D03*
X51000000Y-39000000D03*
X35500000Y-23500000D03*
X51000000Y-35000000D03*
X27000000Y-26000000D03*
X25000000Y-28000000D03*
X25000000Y-27000000D03*
X27000000Y-27000000D03*
X26000000Y-28000000D03*
X26000000Y-27000000D03*
X25000000Y-26000000D03*
X26000000Y-26000000D03*
X27000000Y-28000000D03*
D24*
X34740000Y-26250000D02*
X34740000Y-25065000D01*
X34740000Y-25065000D02*
X34500000Y-24825000D01*
X34740000Y-26750000D02*
X35475000Y-26750000D01*
X35475000Y-26750000D02*
X36225000Y-26000000D01*
X34740000Y-27250000D02*
X35975000Y-27250000D01*
X35975000Y-27250000D02*
X36225000Y-27500000D01*
X31975000Y-27250000D02*
X33260000Y-27250000D01*
D25*
X50745000Y-35255000D02*
X51000000Y-35000000D01*
X50745000Y-36050000D02*
X50745000Y-35255000D01*
X50745000Y-38745000D02*
X51000000Y-39000000D01*
D26*
X34500000Y-23175000D02*
X35175000Y-23175000D01*
D25*
X50745000Y-37950000D02*
X50745000Y-38745000D01*
D26*
X35175000Y-23175000D02*
X35500000Y-23500000D01*
D24*
X31975000Y-27250000D02*
X31500000Y-27725000D01*
D26*
X33000000Y-24825000D02*
X34500000Y-24825000D01*
G04 #@! TA.AperFunction,Conductor*
G36*
X51971063Y-35332388D02*
G01*
X51999815Y-35395343D01*
X51999965Y-35395319D01*
X52000053Y-35395865D01*
X52000089Y-35395943D01*
X52000228Y-35396943D01*
X52008885Y-35450367D01*
X52008885Y-35450369D01*
X52059166Y-35585174D01*
X52059168Y-35585179D01*
X52092653Y-35646502D01*
X52178877Y-35761683D01*
X52178881Y-35761687D01*
X52178886Y-35761693D01*
X52243691Y-35826498D01*
X52243707Y-35826513D01*
X52296976Y-35872815D01*
X52324569Y-35893603D01*
X52324573Y-35893606D01*
X52324575Y-35893607D01*
X52343015Y-35905577D01*
X52388528Y-35958589D01*
X52399500Y-36009585D01*
X52399500Y-36296220D01*
X52399501Y-36296226D01*
X52405999Y-36345593D01*
X52456523Y-36453942D01*
X52541058Y-36538477D01*
X52644080Y-36586517D01*
X52649405Y-36589000D01*
X52649406Y-36589001D01*
X52656890Y-36589986D01*
X52698773Y-36595500D01*
X52985776Y-36595499D01*
X53049593Y-36613182D01*
X53104873Y-36646364D01*
X53165534Y-36671854D01*
X53167529Y-36672771D01*
X53169286Y-36673431D01*
X53169290Y-36673433D01*
X53252862Y-36695218D01*
X53296698Y-36706645D01*
X53308518Y-36709726D01*
X53308525Y-36709726D01*
X53310045Y-36710009D01*
X53328378Y-36714887D01*
X53432540Y-36751335D01*
X53432565Y-36751343D01*
X53438188Y-36753151D01*
X53450876Y-36758012D01*
X53463165Y-36763511D01*
X53470369Y-36766735D01*
X53470371Y-36766735D01*
X53470372Y-36766736D01*
X53536345Y-36785743D01*
X53676289Y-36805500D01*
X53676297Y-36805500D01*
X53823705Y-36805500D01*
X53823711Y-36805500D01*
X53963657Y-36785742D01*
X54029629Y-36766735D01*
X54047045Y-36758940D01*
X54056718Y-36755092D01*
X54067433Y-36751342D01*
X54067434Y-36751343D01*
X54170760Y-36715186D01*
X54197820Y-36709011D01*
X54236118Y-36704696D01*
X54263880Y-36704696D01*
X54302175Y-36709010D01*
X54329239Y-36715187D01*
X54432565Y-36751343D01*
X54443276Y-36755091D01*
X54452968Y-36758947D01*
X54470373Y-36766736D01*
X54470380Y-36766738D01*
X54536335Y-36785740D01*
X54536338Y-36785740D01*
X54536347Y-36785743D01*
X54676289Y-36805500D01*
X56094619Y-36805500D01*
X56161658Y-36825185D01*
X56175815Y-36835782D01*
X56256350Y-36905567D01*
X56387227Y-36965338D01*
X56454266Y-36985023D01*
X56454270Y-36985024D01*
X56596686Y-37005500D01*
X56596689Y-37005500D01*
X57993890Y-37005500D01*
X57993907Y-37005500D01*
X58018707Y-37004891D01*
X58030861Y-37004294D01*
X58055610Y-37002469D01*
X58232483Y-36985048D01*
X58281547Y-36977770D01*
X58305388Y-36973028D01*
X58345372Y-36963013D01*
X58415184Y-36965819D01*
X58472398Y-37005923D01*
X58498847Y-37070593D01*
X58499500Y-37083297D01*
X58499500Y-38995572D01*
X58499184Y-39004419D01*
X58484869Y-39204557D01*
X58482351Y-39222068D01*
X58440646Y-39413787D01*
X58435662Y-39430763D01*
X58367090Y-39614609D01*
X58359740Y-39630701D01*
X58265711Y-39802904D01*
X58256146Y-39817789D01*
X58138558Y-39974867D01*
X58126972Y-39988237D01*
X57988237Y-40126972D01*
X57974867Y-40138558D01*
X57817789Y-40256146D01*
X57802904Y-40265711D01*
X57630701Y-40359740D01*
X57614609Y-40367090D01*
X57430763Y-40435662D01*
X57413787Y-40440646D01*
X57222068Y-40482351D01*
X57204557Y-40484869D01*
X57023779Y-40497799D01*
X57004417Y-40499184D01*
X56995572Y-40499500D01*
X45124000Y-40499500D01*
X45056961Y-40479815D01*
X45011206Y-40427011D01*
X45000000Y-40375500D01*
X45000000Y-38247844D01*
X47525000Y-38247844D01*
X47531401Y-38307372D01*
X47531403Y-38307379D01*
X47581645Y-38442086D01*
X47581649Y-38442093D01*
X47667809Y-38557187D01*
X47667812Y-38557190D01*
X47782906Y-38643350D01*
X47782913Y-38643354D01*
X47917620Y-38693596D01*
X47917627Y-38693598D01*
X47977155Y-38699999D01*
X47977172Y-38700000D01*
X48250000Y-38700000D01*
X48750000Y-38700000D01*
X49022828Y-38700000D01*
X49022844Y-38699999D01*
X49082372Y-38693598D01*
X49082379Y-38693596D01*
X49217086Y-38643354D01*
X49217093Y-38643350D01*
X49332187Y-38557190D01*
X49332190Y-38557187D01*
X49418350Y-38442093D01*
X49418354Y-38442086D01*
X49468596Y-38307379D01*
X49468598Y-38307372D01*
X49474999Y-38247844D01*
X49475000Y-38247827D01*
X49475000Y-38200000D01*
X48750000Y-38200000D01*
X48750000Y-38700000D01*
X48250000Y-38700000D01*
X48250000Y-38200000D01*
X47525000Y-38200000D01*
X47525000Y-38247844D01*
X45000000Y-38247844D01*
X45000000Y-37703772D01*
X49889500Y-37703772D01*
X49889500Y-38196220D01*
X49889501Y-38196226D01*
X49895999Y-38245593D01*
X49896000Y-38245595D01*
X49896000Y-38245596D01*
X49924807Y-38307372D01*
X49946523Y-38353942D01*
X50031058Y-38438477D01*
X50139403Y-38488999D01*
X50139405Y-38489000D01*
X50139406Y-38489001D01*
X50146890Y-38489986D01*
X50188773Y-38495500D01*
X50270501Y-38495499D01*
X50337538Y-38515183D01*
X50383294Y-38567986D01*
X50394500Y-38619499D01*
X50394500Y-38791143D01*
X50416888Y-38874697D01*
X50416889Y-38874700D01*
X50418386Y-38880290D01*
X50431641Y-38903247D01*
X50448115Y-38971147D01*
X50447194Y-38981432D01*
X50444750Y-38999997D01*
X50444750Y-39000000D01*
X50463670Y-39143708D01*
X50463671Y-39143712D01*
X50519137Y-39277622D01*
X50519138Y-39277624D01*
X50519139Y-39277625D01*
X50607379Y-39392621D01*
X50722375Y-39480861D01*
X50856291Y-39536330D01*
X50983280Y-39553048D01*
X50999999Y-39555250D01*
X51000000Y-39555250D01*
X51000001Y-39555250D01*
X51014977Y-39553278D01*
X51143709Y-39536330D01*
X51277625Y-39480861D01*
X51392621Y-39392621D01*
X51480861Y-39277625D01*
X51536330Y-39143709D01*
X51555250Y-39000000D01*
X51536330Y-38856291D01*
X51480861Y-38722375D01*
X51408700Y-38628333D01*
X51383507Y-38563167D01*
X51397545Y-38494722D01*
X51446359Y-38444732D01*
X51454649Y-38440478D01*
X51458942Y-38438477D01*
X51543477Y-38353942D01*
X51594001Y-38245593D01*
X51600500Y-38196227D01*
X51600499Y-37703774D01*
X51600499Y-37703772D01*
X52399500Y-37703772D01*
X52399500Y-38196220D01*
X52399501Y-38196226D01*
X52405999Y-38245593D01*
X52406000Y-38245595D01*
X52406000Y-38245596D01*
X52434807Y-38307372D01*
X52456523Y-38353942D01*
X52541058Y-38438477D01*
X52649403Y-38488999D01*
X52649405Y-38489000D01*
X52649406Y-38489001D01*
X52655905Y-38489856D01*
X52698773Y-38495500D01*
X53811226Y-38495499D01*
X53860593Y-38489001D01*
X53968942Y-38438477D01*
X54053477Y-38353942D01*
X54102951Y-38247844D01*
X54525000Y-38247844D01*
X54531401Y-38307372D01*
X54531403Y-38307379D01*
X54581645Y-38442086D01*
X54581649Y-38442093D01*
X54667809Y-38557187D01*
X54667812Y-38557190D01*
X54782906Y-38643350D01*
X54782913Y-38643354D01*
X54917620Y-38693596D01*
X54917627Y-38693598D01*
X54977155Y-38699999D01*
X54977172Y-38700000D01*
X55250000Y-38700000D01*
X55750000Y-38700000D01*
X56022828Y-38700000D01*
X56022844Y-38699999D01*
X56082372Y-38693598D01*
X56082379Y-38693596D01*
X56217086Y-38643354D01*
X56217093Y-38643350D01*
X56332187Y-38557190D01*
X56332190Y-38557187D01*
X56418350Y-38442093D01*
X56418354Y-38442086D01*
X56468596Y-38307379D01*
X56468598Y-38307372D01*
X56474999Y-38247844D01*
X56475000Y-38247827D01*
X56475000Y-38200000D01*
X55750000Y-38200000D01*
X55750000Y-38700000D01*
X55250000Y-38700000D01*
X55250000Y-38200000D01*
X54525000Y-38200000D01*
X54525000Y-38247844D01*
X54102951Y-38247844D01*
X54104001Y-38245593D01*
X54110500Y-38196227D01*
X54110499Y-37703774D01*
X54104001Y-37654407D01*
X54102951Y-37652155D01*
X54525000Y-37652155D01*
X54525000Y-37700000D01*
X55250000Y-37700000D01*
X55750000Y-37700000D01*
X56475000Y-37700000D01*
X56475000Y-37652172D01*
X56474999Y-37652155D01*
X56468598Y-37592627D01*
X56468596Y-37592620D01*
X56418354Y-37457913D01*
X56418350Y-37457906D01*
X56332190Y-37342812D01*
X56332187Y-37342809D01*
X56217093Y-37256649D01*
X56217086Y-37256645D01*
X56082379Y-37206403D01*
X56082372Y-37206401D01*
X56022844Y-37200000D01*
X55750000Y-37200000D01*
X55750000Y-37700000D01*
X55250000Y-37700000D01*
X55250000Y-37200000D01*
X54977155Y-37200000D01*
X54917627Y-37206401D01*
X54917620Y-37206403D01*
X54782913Y-37256645D01*
X54782906Y-37256649D01*
X54667812Y-37342809D01*
X54667809Y-37342812D01*
X54581649Y-37457906D01*
X54581645Y-37457913D01*
X54531403Y-37592620D01*
X54531401Y-37592627D01*
X54525000Y-37652155D01*
X54102951Y-37652155D01*
X54053477Y-37546058D01*
X53968942Y-37461523D01*
X53961185Y-37457906D01*
X53860594Y-37410999D01*
X53860593Y-37410998D01*
X53811227Y-37404500D01*
X52698779Y-37404500D01*
X52683129Y-37406560D01*
X52649407Y-37410999D01*
X52649405Y-37411000D01*
X52649403Y-37411000D01*
X52541057Y-37461523D01*
X52456523Y-37546057D01*
X52405999Y-37654405D01*
X52405998Y-37654406D01*
X52399500Y-37703772D01*
X51600499Y-37703772D01*
X51594001Y-37654407D01*
X51543477Y-37546058D01*
X51543476Y-37546057D01*
X51543214Y-37545683D01*
X51542984Y-37545001D01*
X51538892Y-37536226D01*
X51539870Y-37535769D01*
X51520885Y-37479477D01*
X51537894Y-37411709D01*
X51543029Y-37403717D01*
X51593509Y-37295462D01*
X51593510Y-37295460D01*
X51599495Y-37250000D01*
X49890507Y-37250000D01*
X49896491Y-37295463D01*
X49896491Y-37295465D01*
X49951524Y-37413483D01*
X49950359Y-37414026D01*
X49969114Y-37469641D01*
X49952103Y-37537408D01*
X49946791Y-37545675D01*
X49946523Y-37546056D01*
X49895999Y-37654405D01*
X49895998Y-37654406D01*
X49889500Y-37703772D01*
X45000000Y-37703772D01*
X45000000Y-37652155D01*
X47525000Y-37652155D01*
X47525000Y-37700000D01*
X48250000Y-37700000D01*
X48750000Y-37700000D01*
X49475000Y-37700000D01*
X49475000Y-37652172D01*
X49474999Y-37652155D01*
X49468598Y-37592627D01*
X49468596Y-37592620D01*
X49418354Y-37457913D01*
X49418350Y-37457906D01*
X49332190Y-37342812D01*
X49332187Y-37342809D01*
X49217093Y-37256649D01*
X49217086Y-37256645D01*
X49082379Y-37206403D01*
X49082372Y-37206401D01*
X49022844Y-37200000D01*
X48750000Y-37200000D01*
X48750000Y-37700000D01*
X48250000Y-37700000D01*
X48250000Y-37200000D01*
X47977155Y-37200000D01*
X47917627Y-37206401D01*
X47917620Y-37206403D01*
X47782913Y-37256645D01*
X47782906Y-37256649D01*
X47667812Y-37342809D01*
X47667809Y-37342812D01*
X47581649Y-37457906D01*
X47581645Y-37457913D01*
X47531403Y-37592620D01*
X47531401Y-37592627D01*
X47525000Y-37652155D01*
X45000000Y-37652155D01*
X45000000Y-36879500D01*
X45019685Y-36812461D01*
X45072489Y-36766706D01*
X45124000Y-36755500D01*
X47403312Y-36755500D01*
X47403314Y-36755500D01*
X47403316Y-36755499D01*
X47403325Y-36755499D01*
X47437112Y-36750948D01*
X47470911Y-36746396D01*
X47534186Y-36729037D01*
X47572730Y-36715051D01*
X47586203Y-36705335D01*
X47652086Y-36682089D01*
X47720084Y-36698154D01*
X47733041Y-36706645D01*
X47782664Y-36743793D01*
X47782671Y-36743797D01*
X47917517Y-36794091D01*
X47917516Y-36794091D01*
X47924444Y-36794835D01*
X47977127Y-36800500D01*
X49022872Y-36800499D01*
X49082483Y-36794091D01*
X49217331Y-36743796D01*
X49268053Y-36705825D01*
X49333515Y-36681408D01*
X49399838Y-36695217D01*
X49421339Y-36706464D01*
X49457659Y-36725464D01*
X49457663Y-36725466D01*
X49507791Y-36740184D01*
X49524701Y-36745150D01*
X49524705Y-36745150D01*
X49524707Y-36745151D01*
X49533353Y-36746394D01*
X49596686Y-36755500D01*
X49596687Y-36755500D01*
X49776244Y-36755500D01*
X49794185Y-36754869D01*
X49806125Y-36754027D01*
X49811589Y-36753642D01*
X49811590Y-36753641D01*
X49817032Y-36752767D01*
X49817075Y-36753039D01*
X49841426Y-36750000D01*
X51599493Y-36750000D01*
X51599493Y-36749999D01*
X51593508Y-36704536D01*
X51593508Y-36704534D01*
X51538476Y-36586517D01*
X51539640Y-36585973D01*
X51520885Y-36530361D01*
X51537894Y-36462594D01*
X51543217Y-36454311D01*
X51543469Y-36453949D01*
X51543477Y-36453942D01*
X51594001Y-36345593D01*
X51600500Y-36296227D01*
X51600499Y-35803774D01*
X51595857Y-35768508D01*
X51606623Y-35699474D01*
X51637593Y-35658613D01*
X51647632Y-35649915D01*
X51679257Y-35617141D01*
X51725465Y-35528806D01*
X51745150Y-35461767D01*
X51754613Y-35395945D01*
X51783637Y-35332391D01*
X51842414Y-35294615D01*
X51912284Y-35294614D01*
X51971063Y-35332388D01*
G37*
G04 #@! TD.AperFunction*
G04 #@! TA.AperFunction,Conductor*
G36*
X42687539Y-18520185D02*
G01*
X42733294Y-18572989D01*
X42744500Y-18624500D01*
X42744500Y-30620500D01*
X42724815Y-30687539D01*
X42672011Y-30733294D01*
X42620500Y-30744500D01*
X39379500Y-30744500D01*
X39312461Y-30724815D01*
X39266706Y-30672011D01*
X39255500Y-30620500D01*
X39255500Y-26624000D01*
X39249661Y-26569687D01*
X39238455Y-26518176D01*
X39231219Y-26491802D01*
X39221546Y-26474815D01*
X39181894Y-26405181D01*
X39181890Y-26405176D01*
X39181888Y-26405172D01*
X39150597Y-26369061D01*
X39136136Y-26352371D01*
X39103359Y-26320743D01*
X39015022Y-26274534D01*
X39015022Y-26274533D01*
X38947990Y-26254851D01*
X38947978Y-26254848D01*
X38876001Y-26244500D01*
X38876000Y-26244500D01*
X38403110Y-26244500D01*
X38403109Y-26244500D01*
X38375814Y-26245963D01*
X38375809Y-26245963D01*
X38375797Y-26245964D01*
X38375789Y-26245964D01*
X38375760Y-26245967D01*
X38344871Y-26249289D01*
X38331614Y-26250000D01*
X37899000Y-26250000D01*
X37831961Y-26230315D01*
X37786206Y-26177511D01*
X37775000Y-26126000D01*
X37775000Y-26000000D01*
X37649000Y-26000000D01*
X37581961Y-25980315D01*
X37536206Y-25927511D01*
X37525000Y-25876000D01*
X37525000Y-25750000D01*
X38025000Y-25750000D01*
X38424999Y-25750000D01*
X38424999Y-25716550D01*
X38409237Y-25617032D01*
X38348116Y-25497076D01*
X38348113Y-25497071D01*
X38252928Y-25401886D01*
X38252923Y-25401883D01*
X38132965Y-25340760D01*
X38132966Y-25340760D01*
X38033456Y-25325000D01*
X38025000Y-25325000D01*
X38025000Y-25750000D01*
X37525000Y-25750000D01*
X37525000Y-25325000D01*
X37524999Y-25325000D01*
X37516553Y-25325001D01*
X37516547Y-25325001D01*
X37417032Y-25340762D01*
X37297076Y-25401883D01*
X37297071Y-25401886D01*
X37201886Y-25497071D01*
X37201883Y-25497076D01*
X37136332Y-25625726D01*
X37134019Y-25624547D01*
X37102759Y-25670245D01*
X37038395Y-25697430D01*
X36969551Y-25685501D01*
X36918085Y-25638247D01*
X36908108Y-25617579D01*
X36871628Y-25519774D01*
X36789687Y-25410313D01*
X36705311Y-25347150D01*
X36680228Y-25328373D01*
X36680226Y-25328372D01*
X36552114Y-25280588D01*
X36552112Y-25280587D01*
X36552110Y-25280587D01*
X36495493Y-25274500D01*
X35954518Y-25274500D01*
X35954509Y-25274501D01*
X35897885Y-25280587D01*
X35769773Y-25328372D01*
X35660313Y-25410313D01*
X35578373Y-25519771D01*
X35530587Y-25647889D01*
X35524500Y-25704498D01*
X35524500Y-25949479D01*
X35504815Y-26016518D01*
X35452011Y-26062273D01*
X35382853Y-26072217D01*
X35319297Y-26043192D01*
X35287066Y-25999566D01*
X35277206Y-25977235D01*
X35197765Y-25897794D01*
X35197763Y-25897793D01*
X35197759Y-25897790D01*
X35194408Y-25896311D01*
X35189300Y-25891996D01*
X35188284Y-25891300D01*
X35188354Y-25891197D01*
X35141034Y-25851222D01*
X35120510Y-25784435D01*
X35120500Y-25782879D01*
X35120500Y-25356314D01*
X35140185Y-25289275D01*
X35144730Y-25282680D01*
X35146275Y-25280587D01*
X35177793Y-25237882D01*
X35218867Y-25120500D01*
X35222646Y-25109701D01*
X35222646Y-25109699D01*
X35225500Y-25079269D01*
X35225500Y-24570730D01*
X35222646Y-24540300D01*
X35222646Y-24540298D01*
X35177793Y-24412119D01*
X35177792Y-24412117D01*
X35097150Y-24302850D01*
X34987882Y-24222207D01*
X34987880Y-24222206D01*
X34859700Y-24177353D01*
X34829270Y-24174500D01*
X34829266Y-24174500D01*
X34170734Y-24174500D01*
X34170730Y-24174500D01*
X34140300Y-24177353D01*
X34140298Y-24177353D01*
X34012119Y-24222206D01*
X34012113Y-24222209D01*
X33906345Y-24300270D01*
X33840716Y-24324241D01*
X33832712Y-24324500D01*
X33667288Y-24324500D01*
X33600249Y-24304815D01*
X33593655Y-24300270D01*
X33487886Y-24222209D01*
X33487880Y-24222206D01*
X33359700Y-24177353D01*
X33329270Y-24174500D01*
X33329266Y-24174500D01*
X32670734Y-24174500D01*
X32670730Y-24174500D01*
X32640300Y-24177353D01*
X32640298Y-24177353D01*
X32512119Y-24222206D01*
X32512117Y-24222207D01*
X32402850Y-24302850D01*
X32322207Y-24412117D01*
X32322206Y-24412119D01*
X32277353Y-24540298D01*
X32277353Y-24540300D01*
X32274500Y-24570730D01*
X32274500Y-25079269D01*
X32277353Y-25109699D01*
X32277353Y-25109701D01*
X32322206Y-25237880D01*
X32322207Y-25237882D01*
X32402850Y-25347150D01*
X32512118Y-25427793D01*
X32554845Y-25442744D01*
X32640299Y-25472646D01*
X32670730Y-25475500D01*
X32670734Y-25475500D01*
X33329270Y-25475500D01*
X33359699Y-25472646D01*
X33359701Y-25472646D01*
X33423790Y-25450219D01*
X33487882Y-25427793D01*
X33511567Y-25410313D01*
X33593655Y-25349730D01*
X33659284Y-25325759D01*
X33667288Y-25325500D01*
X33832712Y-25325500D01*
X33899751Y-25345185D01*
X33906345Y-25349730D01*
X34012113Y-25427790D01*
X34012115Y-25427791D01*
X34012118Y-25427793D01*
X34054845Y-25442744D01*
X34140299Y-25472646D01*
X34170730Y-25475500D01*
X34170734Y-25475500D01*
X34235500Y-25475500D01*
X34302539Y-25495185D01*
X34348294Y-25547989D01*
X34359500Y-25599500D01*
X34359500Y-25782879D01*
X34339815Y-25849918D01*
X34287011Y-25895673D01*
X34285592Y-25896311D01*
X34282240Y-25897790D01*
X34282232Y-25897796D01*
X34202794Y-25977234D01*
X34157415Y-26080006D01*
X34157415Y-26080008D01*
X34154500Y-26105131D01*
X34154500Y-26394856D01*
X34154502Y-26394882D01*
X34157413Y-26419985D01*
X34157413Y-26419986D01*
X34157414Y-26419990D01*
X34157415Y-26419991D01*
X34169209Y-26446703D01*
X34170628Y-26449915D01*
X34179697Y-26519194D01*
X34170628Y-26550083D01*
X34157415Y-26580008D01*
X34154500Y-26605131D01*
X34154500Y-26894856D01*
X34154502Y-26894882D01*
X34157413Y-26919985D01*
X34157413Y-26919986D01*
X34157414Y-26919990D01*
X34157415Y-26919991D01*
X34170626Y-26949912D01*
X34170628Y-26949915D01*
X34179697Y-27019194D01*
X34170628Y-27050083D01*
X34157415Y-27080008D01*
X34154500Y-27105131D01*
X34154500Y-27394856D01*
X34154502Y-27394882D01*
X34157413Y-27419985D01*
X34157413Y-27419986D01*
X34157414Y-27419990D01*
X34157415Y-27419991D01*
X34157415Y-27419992D01*
X34170628Y-27449915D01*
X34179697Y-27519194D01*
X34170628Y-27550083D01*
X34157415Y-27580008D01*
X34154500Y-27605131D01*
X34154500Y-27853279D01*
X34134815Y-27920318D01*
X34111709Y-27946987D01*
X34102371Y-27955078D01*
X34070743Y-27987855D01*
X34024534Y-28076192D01*
X34024533Y-28076192D01*
X34004851Y-28143224D01*
X34004848Y-28143236D01*
X33994500Y-28215213D01*
X33994500Y-29061741D01*
X34003093Y-29127446D01*
X34003094Y-29127453D01*
X34019495Y-29189081D01*
X34019499Y-29189094D01*
X34032396Y-29225948D01*
X34089461Y-29307691D01*
X34139864Y-29356078D01*
X34175400Y-29384566D01*
X34267600Y-29422481D01*
X34324384Y-29433625D01*
X34386374Y-29465851D01*
X34421103Y-29526478D01*
X34424500Y-29555303D01*
X34424500Y-29645220D01*
X34404815Y-29712259D01*
X34352011Y-29758014D01*
X34318150Y-29767957D01*
X34286134Y-29772561D01*
X34286115Y-29772564D01*
X34241807Y-29783035D01*
X34241799Y-29783038D01*
X34155177Y-29832364D01*
X34155173Y-29832367D01*
X34102371Y-29878119D01*
X34070743Y-29910896D01*
X34024534Y-29999233D01*
X34024533Y-29999233D01*
X34004851Y-30066265D01*
X34004848Y-30066277D01*
X33994500Y-30138254D01*
X33994500Y-30620500D01*
X33974815Y-30687539D01*
X33922011Y-30733294D01*
X33870500Y-30744500D01*
X32623997Y-30744500D01*
X32569687Y-30750338D01*
X32518181Y-30761543D01*
X32518172Y-30761546D01*
X32491807Y-30768779D01*
X32491796Y-30768783D01*
X32405181Y-30818105D01*
X32405173Y-30818111D01*
X32352371Y-30863863D01*
X32320743Y-30896640D01*
X32274534Y-30984977D01*
X32274533Y-30984977D01*
X32254851Y-31052009D01*
X32254848Y-31052021D01*
X32244817Y-31121792D01*
X32244500Y-31124000D01*
X32244500Y-31561398D01*
X32245348Y-31577244D01*
X32245962Y-31588694D01*
X32245963Y-31588708D01*
X32248795Y-31615058D01*
X32248796Y-31615064D01*
X32278584Y-31710198D01*
X32278587Y-31710205D01*
X32312068Y-31771522D01*
X32312075Y-31771534D01*
X32337370Y-31809390D01*
X32337374Y-31809394D01*
X32344559Y-31815399D01*
X32413865Y-31873322D01*
X32475187Y-31906808D01*
X32516952Y-31924988D01*
X32535769Y-31927351D01*
X32540953Y-31928003D01*
X32605017Y-31955888D01*
X32643835Y-32013983D01*
X32649500Y-32051036D01*
X32649500Y-33949160D01*
X32629815Y-34016199D01*
X32577011Y-34061954D01*
X32543152Y-34071897D01*
X32536129Y-34072907D01*
X32536115Y-34072909D01*
X32491807Y-34083380D01*
X32491799Y-34083383D01*
X32405177Y-34132709D01*
X32405173Y-34132712D01*
X32352371Y-34178464D01*
X32320743Y-34211241D01*
X32274534Y-34299578D01*
X32274533Y-34299578D01*
X32254851Y-34366610D01*
X32254848Y-34366622D01*
X32244500Y-34438599D01*
X32244500Y-34722575D01*
X32224815Y-34789614D01*
X32172011Y-34835369D01*
X32102853Y-34845313D01*
X32083950Y-34840916D01*
X31983456Y-34825000D01*
X31975000Y-34825000D01*
X31975000Y-36174999D01*
X31983449Y-36174999D01*
X32092608Y-36157711D01*
X32092842Y-36159190D01*
X32152013Y-36157495D01*
X32211849Y-36193570D01*
X32242682Y-36256269D01*
X32244500Y-36277424D01*
X32244500Y-36376002D01*
X32250338Y-36430312D01*
X32261543Y-36481818D01*
X32261546Y-36481827D01*
X32268779Y-36508192D01*
X32268783Y-36508203D01*
X32318105Y-36594818D01*
X32318110Y-36594825D01*
X32318112Y-36594828D01*
X32327449Y-36605603D01*
X32363863Y-36647628D01*
X32363866Y-36647631D01*
X32363867Y-36647632D01*
X32396641Y-36679257D01*
X32484976Y-36725465D01*
X32484977Y-36725465D01*
X32484977Y-36725466D01*
X32535105Y-36740184D01*
X32552015Y-36745150D01*
X32552019Y-36745150D01*
X32552021Y-36745151D01*
X32560681Y-36746396D01*
X32624000Y-36755500D01*
X32624001Y-36755500D01*
X43876000Y-36755500D01*
X43943039Y-36775185D01*
X43988794Y-36827989D01*
X44000000Y-36879500D01*
X44000000Y-40375500D01*
X43980315Y-40442539D01*
X43927511Y-40488294D01*
X43876000Y-40499500D01*
X25004428Y-40499500D01*
X24995582Y-40499184D01*
X24973622Y-40497613D01*
X24795442Y-40484869D01*
X24777931Y-40482351D01*
X24586212Y-40440646D01*
X24569236Y-40435662D01*
X24385390Y-40367090D01*
X24369298Y-40359740D01*
X24197095Y-40265711D01*
X24182210Y-40256146D01*
X24025132Y-40138558D01*
X24011762Y-40126972D01*
X23873027Y-39988237D01*
X23861441Y-39974867D01*
X23743849Y-39817784D01*
X23734288Y-39802904D01*
X23640259Y-39630701D01*
X23632909Y-39614609D01*
X23572091Y-39451551D01*
X23564334Y-39430755D01*
X23559355Y-39413797D01*
X23517647Y-39222063D01*
X23515130Y-39204556D01*
X23500816Y-39004418D01*
X23500500Y-38995572D01*
X23500500Y-35783449D01*
X31075001Y-35783449D01*
X31090762Y-35882967D01*
X31151883Y-36002923D01*
X31151886Y-36002928D01*
X31247071Y-36098113D01*
X31247076Y-36098116D01*
X31367034Y-36159239D01*
X31466543Y-36174999D01*
X31466554Y-36175000D01*
X31474999Y-36174999D01*
X31475000Y-36174998D01*
X31475000Y-35750000D01*
X31075001Y-35750000D01*
X31075001Y-35783449D01*
X23500500Y-35783449D01*
X23500500Y-35216543D01*
X31075000Y-35216543D01*
X31075000Y-35250000D01*
X31475000Y-35250000D01*
X31475000Y-34825000D01*
X31474999Y-34825000D01*
X31466553Y-34825001D01*
X31466547Y-34825001D01*
X31367032Y-34840762D01*
X31247076Y-34901883D01*
X31247071Y-34901886D01*
X31151886Y-34997071D01*
X31151883Y-34997076D01*
X31090760Y-35117033D01*
X31075000Y-35216543D01*
X23500500Y-35216543D01*
X23500500Y-34154196D01*
X29750001Y-34154196D01*
X29752851Y-34184606D01*
X29797653Y-34312645D01*
X29878207Y-34421792D01*
X29987354Y-34502346D01*
X30115397Y-34547149D01*
X30145778Y-34549998D01*
X30145806Y-34549999D01*
X30274999Y-34549999D01*
X30775000Y-34549999D01*
X30904196Y-34549999D01*
X30934606Y-34547148D01*
X31062645Y-34502346D01*
X31171792Y-34421792D01*
X31252346Y-34312645D01*
X31297149Y-34184604D01*
X31297149Y-34184600D01*
X31300000Y-34154206D01*
X31300000Y-33250000D01*
X30775000Y-33250000D01*
X30775000Y-34549999D01*
X30274999Y-34549999D01*
X30275000Y-34549998D01*
X30275000Y-33250000D01*
X29750001Y-33250000D01*
X29750001Y-34154196D01*
X23500500Y-34154196D01*
X23500500Y-30854196D01*
X27450001Y-30854196D01*
X27452851Y-30884606D01*
X27497653Y-31012645D01*
X27578207Y-31121792D01*
X27687354Y-31202346D01*
X27815397Y-31247149D01*
X27845792Y-31249999D01*
X28749999Y-31249999D01*
X29250000Y-31249999D01*
X29965299Y-31249999D01*
X30032338Y-31269684D01*
X30078093Y-31322488D01*
X30088037Y-31391646D01*
X30059012Y-31455202D01*
X30006253Y-31491041D01*
X29987354Y-31497653D01*
X29878207Y-31578207D01*
X29797653Y-31687354D01*
X29752850Y-31815395D01*
X29752850Y-31815399D01*
X29750000Y-31845793D01*
X29750000Y-32750000D01*
X30275000Y-32750000D01*
X30775000Y-32750000D01*
X31299999Y-32750000D01*
X31299999Y-31845803D01*
X31297148Y-31815393D01*
X31252346Y-31687354D01*
X31171792Y-31578207D01*
X31062645Y-31497653D01*
X30934602Y-31452850D01*
X30904207Y-31450000D01*
X30775000Y-31450000D01*
X30775000Y-32750000D01*
X30275000Y-32750000D01*
X30275000Y-31450000D01*
X30240843Y-31415844D01*
X30207358Y-31354521D01*
X30212342Y-31284829D01*
X30254213Y-31228895D01*
X30287571Y-31211120D01*
X30312643Y-31202347D01*
X30312645Y-31202346D01*
X30421792Y-31121792D01*
X30502346Y-31012645D01*
X30547149Y-30884604D01*
X30547149Y-30884600D01*
X30550000Y-30854206D01*
X30550000Y-30725000D01*
X29250000Y-30725000D01*
X29250000Y-31249999D01*
X28749999Y-31249999D01*
X28750000Y-31249998D01*
X28750000Y-30725000D01*
X27450001Y-30725000D01*
X27450001Y-30854196D01*
X23500500Y-30854196D01*
X23500500Y-30095793D01*
X27450000Y-30095793D01*
X27450000Y-30225000D01*
X28750000Y-30225000D01*
X29250000Y-30225000D01*
X30549999Y-30225000D01*
X30549999Y-30095803D01*
X30547148Y-30065393D01*
X30502346Y-29937354D01*
X30421792Y-29828207D01*
X30312645Y-29747653D01*
X30184602Y-29702850D01*
X30154207Y-29700000D01*
X29250000Y-29700000D01*
X29250000Y-30225000D01*
X28750000Y-30225000D01*
X28750000Y-29700000D01*
X27845803Y-29700000D01*
X27815393Y-29702851D01*
X27687354Y-29747653D01*
X27578207Y-29828207D01*
X27497653Y-29937354D01*
X27452850Y-30065395D01*
X27452850Y-30065399D01*
X27450000Y-30095793D01*
X23500500Y-30095793D01*
X23500500Y-29533449D01*
X30825001Y-29533449D01*
X30840762Y-29632967D01*
X30901883Y-29752923D01*
X30901886Y-29752928D01*
X30997071Y-29848113D01*
X30997076Y-29848116D01*
X31117034Y-29909239D01*
X31117033Y-29909239D01*
X31216543Y-29924999D01*
X31750000Y-29924999D01*
X31783449Y-29924999D01*
X31882967Y-29909237D01*
X32002923Y-29848116D01*
X32002928Y-29848113D01*
X32098113Y-29752928D01*
X32098116Y-29752923D01*
X32159239Y-29632966D01*
X32175000Y-29533456D01*
X32175000Y-29525000D01*
X31750000Y-29525000D01*
X31750000Y-29924999D01*
X31216543Y-29924999D01*
X31250000Y-29924998D01*
X31250000Y-29525000D01*
X30825001Y-29525000D01*
X30825001Y-29533449D01*
X23500500Y-29533449D01*
X23500500Y-28879500D01*
X23520185Y-28812461D01*
X23572989Y-28766706D01*
X23624500Y-28755500D01*
X27665296Y-28755500D01*
X27731005Y-28746906D01*
X27792640Y-28730503D01*
X27829502Y-28717604D01*
X27911245Y-28660539D01*
X27959632Y-28610136D01*
X27988120Y-28574599D01*
X28026035Y-28482400D01*
X28026035Y-28482396D01*
X28026037Y-28482393D01*
X28032274Y-28450617D01*
X28064501Y-28388624D01*
X28125129Y-28353895D01*
X28153952Y-28350499D01*
X29845263Y-28350499D01*
X29912302Y-28370184D01*
X29958057Y-28422988D01*
X29968000Y-28456848D01*
X29969009Y-28463868D01*
X29969012Y-28463884D01*
X29979483Y-28508192D01*
X29979486Y-28508200D01*
X30028812Y-28594822D01*
X30028814Y-28594825D01*
X30028816Y-28594828D01*
X30055284Y-28625374D01*
X30074567Y-28647628D01*
X30074570Y-28647631D01*
X30074571Y-28647632D01*
X30107345Y-28679257D01*
X30195680Y-28725465D01*
X30195681Y-28725465D01*
X30195681Y-28725466D01*
X30245809Y-28740184D01*
X30262719Y-28745150D01*
X30262723Y-28745150D01*
X30262725Y-28745151D01*
X30274356Y-28746823D01*
X30334704Y-28755500D01*
X30334705Y-28755500D01*
X30722575Y-28755500D01*
X30789614Y-28775185D01*
X30835369Y-28827989D01*
X30845313Y-28897147D01*
X30840916Y-28916049D01*
X30825000Y-29016543D01*
X30825000Y-29025000D01*
X32174999Y-29025000D01*
X32174999Y-29016550D01*
X32159237Y-28917032D01*
X32098116Y-28797076D01*
X32098113Y-28797071D01*
X32002928Y-28701886D01*
X32002923Y-28701883D01*
X31874274Y-28636332D01*
X31875452Y-28634019D01*
X31829759Y-28602765D01*
X31802570Y-28538402D01*
X31814494Y-28469558D01*
X31861746Y-28418089D01*
X31882420Y-28408108D01*
X31980226Y-28371628D01*
X32089687Y-28289687D01*
X32171628Y-28180226D01*
X32219412Y-28052114D01*
X32221922Y-28028761D01*
X32225499Y-27995500D01*
X32225499Y-27995494D01*
X32225500Y-27995485D01*
X32225500Y-27900000D01*
X32730047Y-27900000D01*
X32739503Y-27947542D01*
X32739504Y-27947543D01*
X32794760Y-28030239D01*
X32877455Y-28085494D01*
X32877459Y-28085496D01*
X32950371Y-28099999D01*
X32950374Y-28100000D01*
X33110000Y-28100000D01*
X33410000Y-28100000D01*
X33569626Y-28100000D01*
X33569628Y-28099999D01*
X33642540Y-28085496D01*
X33642544Y-28085494D01*
X33725239Y-28030239D01*
X33780495Y-27947543D01*
X33780496Y-27947542D01*
X33789952Y-27900000D01*
X33410000Y-27900000D01*
X33410000Y-28100000D01*
X33110000Y-28100000D01*
X33110000Y-27900000D01*
X32730047Y-27900000D01*
X32225500Y-27900000D01*
X32225499Y-27754499D01*
X32245183Y-27687461D01*
X32297987Y-27641706D01*
X32349499Y-27630500D01*
X32840157Y-27630500D01*
X32890242Y-27641064D01*
X32905009Y-27647585D01*
X32930135Y-27650500D01*
X33589864Y-27650499D01*
X33589879Y-27650497D01*
X33589882Y-27650497D01*
X33614987Y-27647586D01*
X33614988Y-27647585D01*
X33614991Y-27647585D01*
X33679872Y-27618937D01*
X33698832Y-27610566D01*
X33748918Y-27600000D01*
X33789952Y-27600000D01*
X33789952Y-27599999D01*
X33789258Y-27596509D01*
X33795485Y-27526918D01*
X33797427Y-27522263D01*
X33842585Y-27419991D01*
X33845500Y-27394865D01*
X33845499Y-27105136D01*
X33845497Y-27105117D01*
X33842586Y-27080012D01*
X33842585Y-27080010D01*
X33842585Y-27080009D01*
X33835681Y-27064374D01*
X33829373Y-27050086D01*
X33820301Y-26980808D01*
X33829374Y-26949912D01*
X33842584Y-26919995D01*
X33842584Y-26919994D01*
X33842584Y-26919993D01*
X33842585Y-26919991D01*
X33845500Y-26894865D01*
X33845499Y-26605136D01*
X33845497Y-26605117D01*
X33842586Y-26580012D01*
X33842585Y-26580011D01*
X33842585Y-26580009D01*
X33797440Y-26477765D01*
X33788369Y-26408490D01*
X33789258Y-26403491D01*
X33789952Y-26400000D01*
X33748918Y-26400000D01*
X33698831Y-26389434D01*
X33698407Y-26389247D01*
X33655950Y-26370500D01*
X33614992Y-26352415D01*
X33589868Y-26349500D01*
X32930143Y-26349500D01*
X32930117Y-26349502D01*
X32905012Y-26352413D01*
X32905008Y-26352415D01*
X32821168Y-26389434D01*
X32771082Y-26400000D01*
X32730048Y-26400000D01*
X32730742Y-26403490D01*
X32724513Y-26473082D01*
X32722559Y-26477765D01*
X32677415Y-26580006D01*
X32677415Y-26580008D01*
X32674500Y-26605131D01*
X32674500Y-26612878D01*
X32654815Y-26679917D01*
X32602011Y-26725672D01*
X32532853Y-26735616D01*
X32469297Y-26706591D01*
X32442747Y-26674239D01*
X32431894Y-26655181D01*
X32431890Y-26655176D01*
X32431888Y-26655172D01*
X32388538Y-26605143D01*
X32386136Y-26602371D01*
X32353359Y-26570743D01*
X32265022Y-26524534D01*
X32265022Y-26524533D01*
X32197990Y-26504851D01*
X32197978Y-26504848D01*
X32126001Y-26494500D01*
X32126000Y-26494500D01*
X31379500Y-26494500D01*
X31312461Y-26474815D01*
X31266706Y-26422011D01*
X31255500Y-26370500D01*
X31255500Y-26099999D01*
X32730047Y-26099999D01*
X32730048Y-26100000D01*
X33110000Y-26100000D01*
X33410000Y-26100000D01*
X33789952Y-26100000D01*
X33789952Y-26099999D01*
X33780496Y-26052457D01*
X33780495Y-26052456D01*
X33725239Y-25969760D01*
X33642544Y-25914505D01*
X33642540Y-25914503D01*
X33569627Y-25900000D01*
X33410000Y-25900000D01*
X33410000Y-26100000D01*
X33110000Y-26100000D01*
X33110000Y-25900000D01*
X32950373Y-25900000D01*
X32877459Y-25914503D01*
X32877455Y-25914505D01*
X32794760Y-25969760D01*
X32739504Y-26052456D01*
X32739503Y-26052457D01*
X32730047Y-26099999D01*
X31255500Y-26099999D01*
X31255500Y-25624000D01*
X31249661Y-25569687D01*
X31238455Y-25518176D01*
X31231219Y-25491802D01*
X31220311Y-25472646D01*
X31181894Y-25405181D01*
X31181890Y-25405176D01*
X31181888Y-25405172D01*
X31150597Y-25369061D01*
X31136136Y-25352371D01*
X31103359Y-25320743D01*
X31015022Y-25274534D01*
X31015022Y-25274533D01*
X30947990Y-25254851D01*
X30947978Y-25254848D01*
X30876001Y-25244500D01*
X30876000Y-25244500D01*
X23624500Y-25244500D01*
X23557461Y-25224815D01*
X23511706Y-25172011D01*
X23500500Y-25120500D01*
X23500500Y-23425000D01*
X32327935Y-23425000D01*
X32339835Y-23500149D01*
X32339837Y-23500155D01*
X32397356Y-23613041D01*
X32397363Y-23613050D01*
X32486949Y-23702636D01*
X32486953Y-23702639D01*
X32599855Y-23760166D01*
X32693514Y-23774999D01*
X32749999Y-23774998D01*
X32750000Y-23774998D01*
X32750000Y-23425000D01*
X32327935Y-23425000D01*
X23500500Y-23425000D01*
X23500500Y-22925000D01*
X32327932Y-22925000D01*
X32750000Y-22925000D01*
X32750000Y-22575000D01*
X33250000Y-22575000D01*
X33250000Y-23774999D01*
X33306479Y-23774999D01*
X33400149Y-23760164D01*
X33400155Y-23760162D01*
X33513041Y-23702643D01*
X33513050Y-23702636D01*
X33602636Y-23613050D01*
X33602638Y-23613047D01*
X33608799Y-23600956D01*
X33656771Y-23550159D01*
X33724592Y-23533361D01*
X33790728Y-23555896D01*
X33819056Y-23583613D01*
X33840782Y-23613050D01*
X33902850Y-23697150D01*
X34012118Y-23777793D01*
X34054845Y-23792744D01*
X34140299Y-23822646D01*
X34170730Y-23825500D01*
X34170734Y-23825500D01*
X34829270Y-23825500D01*
X34859699Y-23822646D01*
X34859701Y-23822646D01*
X34927922Y-23798774D01*
X34997700Y-23795211D01*
X35058328Y-23829940D01*
X35067252Y-23840327D01*
X35107379Y-23892621D01*
X35222375Y-23980861D01*
X35356291Y-24036330D01*
X35483280Y-24053048D01*
X35499999Y-24055250D01*
X35500000Y-24055250D01*
X35500001Y-24055250D01*
X35514977Y-24053278D01*
X35643709Y-24036330D01*
X35777625Y-23980861D01*
X35892621Y-23892621D01*
X35980861Y-23777625D01*
X36036330Y-23643709D01*
X36055250Y-23500000D01*
X36036330Y-23356291D01*
X35980861Y-23222375D01*
X35892621Y-23107379D01*
X35777625Y-23019139D01*
X35713909Y-22992747D01*
X35673681Y-22965867D01*
X35482316Y-22774502D01*
X35482314Y-22774500D01*
X35417274Y-22736949D01*
X35368187Y-22708608D01*
X35304539Y-22691554D01*
X35240892Y-22674500D01*
X35240891Y-22674500D01*
X35167288Y-22674500D01*
X35100249Y-22654815D01*
X35093655Y-22650270D01*
X34987886Y-22572209D01*
X34987880Y-22572206D01*
X34859700Y-22527353D01*
X34829270Y-22524500D01*
X34829266Y-22524500D01*
X34170734Y-22524500D01*
X34170730Y-22524500D01*
X34140300Y-22527353D01*
X34140298Y-22527353D01*
X34012119Y-22572206D01*
X34012117Y-22572207D01*
X33902850Y-22652850D01*
X33819056Y-22766386D01*
X33763408Y-22808637D01*
X33693752Y-22814094D01*
X33632203Y-22781027D01*
X33608800Y-22749045D01*
X33602639Y-22736953D01*
X33602636Y-22736949D01*
X33513050Y-22647363D01*
X33513046Y-22647360D01*
X33400144Y-22589833D01*
X33306486Y-22575000D01*
X33250000Y-22575000D01*
X32750000Y-22575000D01*
X32749999Y-22574999D01*
X32693521Y-22575000D01*
X32599849Y-22589835D01*
X32599844Y-22589837D01*
X32486958Y-22647356D01*
X32486949Y-22647363D01*
X32397363Y-22736949D01*
X32397360Y-22736953D01*
X32339833Y-22849855D01*
X32327932Y-22925000D01*
X23500500Y-22925000D01*
X23500500Y-20004427D01*
X23500816Y-19995581D01*
X23515130Y-19795436D01*
X23517646Y-19777938D01*
X23559356Y-19586199D01*
X23564333Y-19569248D01*
X23632911Y-19385385D01*
X23640259Y-19369298D01*
X23702815Y-19254734D01*
X23734291Y-19197089D01*
X23743845Y-19182221D01*
X23861448Y-19025123D01*
X23873020Y-19011769D01*
X24011769Y-18873020D01*
X24025123Y-18861448D01*
X24182221Y-18743845D01*
X24197089Y-18734291D01*
X24369298Y-18640258D01*
X24385385Y-18632911D01*
X24569248Y-18564333D01*
X24586199Y-18559356D01*
X24777938Y-18517646D01*
X24795436Y-18515130D01*
X24995582Y-18500816D01*
X25004428Y-18500500D01*
X25065892Y-18500500D01*
X42620500Y-18500500D01*
X42687539Y-18520185D01*
G37*
G04 #@! TD.AperFunction*
G04 #@! TA.AperFunction,Conductor*
G36*
X37213929Y-26519685D02*
G01*
X37234566Y-26536314D01*
X37296780Y-26598528D01*
X37377775Y-26639797D01*
X37428569Y-26687769D01*
X37445364Y-26755590D01*
X37422827Y-26821725D01*
X37377774Y-26860764D01*
X37297078Y-26901881D01*
X37297071Y-26901886D01*
X37201886Y-26997071D01*
X37201883Y-26997076D01*
X37140760Y-27117033D01*
X37125000Y-27216543D01*
X37125000Y-27250000D01*
X38424999Y-27250000D01*
X38424999Y-27216550D01*
X38409237Y-27117032D01*
X38348116Y-26997076D01*
X38348113Y-26997071D01*
X38252928Y-26901886D01*
X38252923Y-26901883D01*
X38172226Y-26860765D01*
X38121430Y-26812790D01*
X38104635Y-26744969D01*
X38127173Y-26678834D01*
X38172224Y-26639797D01*
X38253220Y-26598528D01*
X38315430Y-26536317D01*
X38376751Y-26502834D01*
X38403110Y-26500000D01*
X38876000Y-26500000D01*
X38943039Y-26519685D01*
X38988794Y-26572489D01*
X39000000Y-26624000D01*
X39000000Y-30620500D01*
X38980315Y-30687539D01*
X38927511Y-30733294D01*
X38876000Y-30744500D01*
X34374000Y-30744500D01*
X34306961Y-30724815D01*
X34261206Y-30672011D01*
X34250000Y-30620500D01*
X34250000Y-30138256D01*
X34269685Y-30071217D01*
X34322489Y-30025462D01*
X34391647Y-30015518D01*
X34455203Y-30044543D01*
X34491042Y-30097302D01*
X34522653Y-30187645D01*
X34603207Y-30296792D01*
X34712354Y-30377346D01*
X34840397Y-30422149D01*
X34870792Y-30424999D01*
X35749999Y-30424999D01*
X36250000Y-30424999D01*
X37129196Y-30424999D01*
X37159606Y-30422148D01*
X37287645Y-30377346D01*
X37396792Y-30296792D01*
X37477346Y-30187645D01*
X37522149Y-30059604D01*
X37522149Y-30059600D01*
X37525000Y-30029206D01*
X37525000Y-29850000D01*
X36250000Y-29850000D01*
X36250000Y-30424999D01*
X35749999Y-30424999D01*
X35750000Y-30424998D01*
X35750000Y-29350000D01*
X36250000Y-29350000D01*
X37524999Y-29350000D01*
X37524999Y-29170803D01*
X37522148Y-29140393D01*
X37477346Y-29012354D01*
X37396792Y-28903207D01*
X37287645Y-28822653D01*
X37159602Y-28777850D01*
X37129207Y-28775000D01*
X36250000Y-28775000D01*
X36250000Y-29350000D01*
X35750000Y-29350000D01*
X35750000Y-28775000D01*
X34870803Y-28775000D01*
X34840393Y-28777851D01*
X34712354Y-28822653D01*
X34603207Y-28903207D01*
X34522653Y-29012354D01*
X34522653Y-29012355D01*
X34491042Y-29102696D01*
X34450320Y-29159473D01*
X34385367Y-29185220D01*
X34316806Y-29171764D01*
X34266403Y-29123377D01*
X34250000Y-29061742D01*
X34250000Y-28215215D01*
X34269685Y-28148176D01*
X34322489Y-28102421D01*
X34391647Y-28092477D01*
X34398193Y-28093598D01*
X34430375Y-28100000D01*
X34590000Y-28100000D01*
X34890000Y-28100000D01*
X35049626Y-28100000D01*
X35049628Y-28099999D01*
X35122540Y-28085496D01*
X35122544Y-28085494D01*
X35205239Y-28030239D01*
X35260495Y-27947543D01*
X35260496Y-27947542D01*
X35269952Y-27900000D01*
X34890000Y-27900000D01*
X34890000Y-28100000D01*
X34590000Y-28100000D01*
X34590000Y-27874000D01*
X34609685Y-27806961D01*
X34662489Y-27761206D01*
X34714000Y-27750000D01*
X34740000Y-27750000D01*
X34740000Y-27724500D01*
X34759685Y-27657461D01*
X34812489Y-27611706D01*
X34864000Y-27600500D01*
X35050664Y-27600500D01*
X35060842Y-27600000D01*
X35286677Y-27600000D01*
X35306497Y-27586500D01*
X35344602Y-27580500D01*
X35450500Y-27580500D01*
X35517539Y-27600185D01*
X35563294Y-27652989D01*
X35574500Y-27704500D01*
X35574500Y-27783493D01*
X35590279Y-27883121D01*
X35590280Y-27883124D01*
X35590281Y-27883126D01*
X35651472Y-28003220D01*
X35651473Y-28003221D01*
X35651476Y-28003225D01*
X35746774Y-28098523D01*
X35746778Y-28098526D01*
X35746780Y-28098528D01*
X35866874Y-28159719D01*
X35866876Y-28159719D01*
X35866878Y-28159720D01*
X35966507Y-28175500D01*
X35966512Y-28175500D01*
X36483493Y-28175500D01*
X36583121Y-28159720D01*
X36583121Y-28159719D01*
X36583126Y-28159719D01*
X36703220Y-28098528D01*
X36798528Y-28003220D01*
X36859719Y-27883126D01*
X36859744Y-27882967D01*
X36875500Y-27783493D01*
X36875500Y-27783449D01*
X37125001Y-27783449D01*
X37140762Y-27882967D01*
X37201883Y-28002923D01*
X37201886Y-28002928D01*
X37297071Y-28098113D01*
X37297076Y-28098116D01*
X37417034Y-28159239D01*
X37516543Y-28174999D01*
X37516554Y-28175000D01*
X37524999Y-28174999D01*
X38025000Y-28174999D01*
X38033449Y-28174999D01*
X38132967Y-28159237D01*
X38252923Y-28098116D01*
X38252928Y-28098113D01*
X38348113Y-28002928D01*
X38348116Y-28002923D01*
X38409239Y-27882966D01*
X38425000Y-27783456D01*
X38425000Y-27750000D01*
X38025000Y-27750000D01*
X38025000Y-28174999D01*
X37524999Y-28174999D01*
X37525000Y-28174998D01*
X37525000Y-27750000D01*
X37125001Y-27750000D01*
X37125001Y-27783449D01*
X36875500Y-27783449D01*
X36875500Y-27216506D01*
X36859720Y-27116878D01*
X36859719Y-27116876D01*
X36859719Y-27116874D01*
X36798528Y-26996780D01*
X36798526Y-26996778D01*
X36798523Y-26996774D01*
X36703225Y-26901476D01*
X36703221Y-26901473D01*
X36703220Y-26901472D01*
X36622775Y-26860483D01*
X36571981Y-26812511D01*
X36555186Y-26744690D01*
X36577723Y-26678555D01*
X36622774Y-26639516D01*
X36703220Y-26598528D01*
X36765430Y-26536317D01*
X36826751Y-26502834D01*
X36853110Y-26500000D01*
X37146890Y-26500000D01*
X37213929Y-26519685D01*
G37*
G04 #@! TD.AperFunction*
G04 #@! TA.AperFunction,Conductor*
G36*
X57004418Y-18500816D02*
G01*
X57204561Y-18515130D01*
X57222063Y-18517647D01*
X57413797Y-18559355D01*
X57430755Y-18564334D01*
X57604113Y-18628994D01*
X57614609Y-18632909D01*
X57630701Y-18640259D01*
X57802904Y-18734288D01*
X57817784Y-18743849D01*
X57883751Y-18793232D01*
X57974867Y-18861441D01*
X57988237Y-18873027D01*
X58126972Y-19011762D01*
X58138558Y-19025132D01*
X58256146Y-19182210D01*
X58265711Y-19197095D01*
X58359740Y-19369298D01*
X58367090Y-19385390D01*
X58435662Y-19569236D01*
X58440646Y-19586212D01*
X58482351Y-19777931D01*
X58484869Y-19795442D01*
X58499184Y-19995580D01*
X58499500Y-20004427D01*
X58499500Y-36287117D01*
X58479815Y-36354156D01*
X58433953Y-36396475D01*
X58393456Y-36418121D01*
X58370998Y-36427424D01*
X58206775Y-36477240D01*
X58182934Y-36481982D01*
X58006061Y-36499403D01*
X57993907Y-36500000D01*
X56596686Y-36500000D01*
X56529647Y-36480315D01*
X56483892Y-36427511D01*
X56473397Y-36362743D01*
X56474999Y-36347841D01*
X56475000Y-36347827D01*
X56475000Y-36300000D01*
X54676289Y-36300000D01*
X54610315Y-36280993D01*
X54599521Y-36274210D01*
X54429254Y-36214631D01*
X54429249Y-36214630D01*
X54250004Y-36194435D01*
X54249996Y-36194435D01*
X54070750Y-36214630D01*
X54070745Y-36214631D01*
X53900478Y-36274210D01*
X53892490Y-36279229D01*
X53889683Y-36280993D01*
X53823711Y-36300000D01*
X53676289Y-36300000D01*
X53610316Y-36280993D01*
X53599522Y-36274211D01*
X53599521Y-36274210D01*
X53599520Y-36274210D01*
X53429249Y-36214630D01*
X53365115Y-36207404D01*
X53300702Y-36180337D01*
X53261147Y-36122742D01*
X53255000Y-36084184D01*
X53255000Y-36050000D01*
X53129000Y-36050000D01*
X53061961Y-36030315D01*
X53016206Y-35977511D01*
X53005000Y-35926000D01*
X53005000Y-35800000D01*
X53505000Y-35800000D01*
X54109493Y-35800000D01*
X54109493Y-35799999D01*
X54103508Y-35754536D01*
X54103508Y-35754534D01*
X54102399Y-35752155D01*
X54525000Y-35752155D01*
X54525000Y-35800000D01*
X55250000Y-35800000D01*
X55750000Y-35800000D01*
X56475000Y-35800000D01*
X56475000Y-35752172D01*
X56474999Y-35752155D01*
X56468598Y-35692627D01*
X56468596Y-35692620D01*
X56418354Y-35557913D01*
X56418350Y-35557906D01*
X56332190Y-35442812D01*
X56332187Y-35442809D01*
X56217093Y-35356649D01*
X56217086Y-35356645D01*
X56082379Y-35306403D01*
X56082372Y-35306401D01*
X56022844Y-35300000D01*
X55750000Y-35300000D01*
X55750000Y-35800000D01*
X55250000Y-35800000D01*
X55250000Y-35300000D01*
X54977155Y-35300000D01*
X54917627Y-35306401D01*
X54917620Y-35306403D01*
X54782913Y-35356645D01*
X54782906Y-35356649D01*
X54667812Y-35442809D01*
X54667809Y-35442812D01*
X54581649Y-35557906D01*
X54581645Y-35557913D01*
X54531403Y-35692620D01*
X54531401Y-35692627D01*
X54525000Y-35752155D01*
X54102399Y-35752155D01*
X54053060Y-35646348D01*
X53968651Y-35561939D01*
X53860465Y-35511491D01*
X53860457Y-35511489D01*
X53811175Y-35505001D01*
X53811158Y-35505000D01*
X53505000Y-35505000D01*
X53505000Y-35800000D01*
X53005000Y-35800000D01*
X53005000Y-35505000D01*
X52698835Y-35505000D01*
X52696924Y-35505126D01*
X52696365Y-35505000D01*
X52694777Y-35505001D01*
X52694777Y-35504645D01*
X52628742Y-35489859D01*
X52601149Y-35469071D01*
X52536319Y-35404241D01*
X52502834Y-35342918D01*
X52500000Y-35316560D01*
X52500000Y-22033455D01*
X52519685Y-21966416D01*
X52572489Y-21920661D01*
X52641647Y-21910717D01*
X52689278Y-21928028D01*
X52787585Y-21988897D01*
X52977678Y-22062539D01*
X53030000Y-22072320D01*
X53030000Y-21433012D01*
X53087007Y-21465925D01*
X53214174Y-21500000D01*
X53345826Y-21500000D01*
X53472993Y-21465925D01*
X53530000Y-21433012D01*
X53530000Y-22072320D01*
X53582321Y-22062539D01*
X53772415Y-21988897D01*
X53945739Y-21881578D01*
X54096391Y-21744242D01*
X54219245Y-21581556D01*
X54306285Y-21406758D01*
X54353788Y-21355521D01*
X54421451Y-21338100D01*
X54487791Y-21360026D01*
X54531746Y-21414337D01*
X54537060Y-21429937D01*
X54546094Y-21463655D01*
X54546096Y-21463659D01*
X54546097Y-21463663D01*
X54601072Y-21581556D01*
X54645965Y-21677830D01*
X54645967Y-21677834D01*
X54692467Y-21744242D01*
X54781505Y-21871401D01*
X54948599Y-22038495D01*
X54996906Y-22072320D01*
X55142165Y-22174032D01*
X55142167Y-22174033D01*
X55142170Y-22174035D01*
X55356337Y-22273903D01*
X55584592Y-22335063D01*
X55772918Y-22351539D01*
X55819999Y-22355659D01*
X55820000Y-22355659D01*
X55820001Y-22355659D01*
X55859234Y-22352226D01*
X56055408Y-22335063D01*
X56283663Y-22273903D01*
X56497830Y-22174035D01*
X56691401Y-22038495D01*
X56858495Y-21871401D01*
X56994035Y-21677830D01*
X57093903Y-21463663D01*
X57155063Y-21235408D01*
X57175659Y-21000000D01*
X57155063Y-20764592D01*
X57093903Y-20536337D01*
X56994035Y-20322171D01*
X56858495Y-20128599D01*
X56858494Y-20128597D01*
X56691402Y-19961506D01*
X56691395Y-19961501D01*
X56657055Y-19937456D01*
X56643090Y-19927677D01*
X56497834Y-19825967D01*
X56497830Y-19825965D01*
X56432373Y-19795442D01*
X56283663Y-19726097D01*
X56283659Y-19726096D01*
X56283655Y-19726094D01*
X56055413Y-19664938D01*
X56055403Y-19664936D01*
X55820001Y-19644341D01*
X55819999Y-19644341D01*
X55584596Y-19664936D01*
X55584586Y-19664938D01*
X55356344Y-19726094D01*
X55356335Y-19726098D01*
X55142171Y-19825964D01*
X55142169Y-19825965D01*
X54948597Y-19961505D01*
X54781505Y-20128597D01*
X54645965Y-20322169D01*
X54645964Y-20322171D01*
X54546098Y-20536335D01*
X54546095Y-20536341D01*
X54537060Y-20570063D01*
X54500695Y-20629723D01*
X54437848Y-20660252D01*
X54368472Y-20651957D01*
X54314594Y-20607472D01*
X54306285Y-20593241D01*
X54219245Y-20418443D01*
X54096391Y-20255757D01*
X53945739Y-20118421D01*
X53772413Y-20011101D01*
X53582315Y-19937458D01*
X53582309Y-19937456D01*
X53530001Y-19927677D01*
X53530000Y-19927679D01*
X53530000Y-20566988D01*
X53472993Y-20534075D01*
X53345826Y-20500000D01*
X53214174Y-20500000D01*
X53087007Y-20534075D01*
X53030000Y-20566988D01*
X53030000Y-19927679D01*
X53029998Y-19927677D01*
X52977690Y-19937456D01*
X52977684Y-19937458D01*
X52787584Y-20011101D01*
X52787582Y-20011102D01*
X52689277Y-20071971D01*
X52621917Y-20090526D01*
X52555217Y-20069718D01*
X52510356Y-20016153D01*
X52500000Y-19966544D01*
X52500000Y-19006092D01*
X52500597Y-18993938D01*
X52501959Y-18980110D01*
X52518018Y-18817056D01*
X52522757Y-18793232D01*
X52572577Y-18628994D01*
X52581873Y-18606553D01*
X52603526Y-18566043D01*
X52652487Y-18516202D01*
X52712882Y-18500500D01*
X56934108Y-18500500D01*
X56995572Y-18500500D01*
X57004418Y-18500816D01*
G37*
G04 #@! TD.AperFunction*
G04 #@! TA.AperFunction,Conductor*
G36*
X47000000Y-36500000D02*
G01*
X43000000Y-36500000D01*
X32624000Y-36500000D01*
X32556961Y-36480315D01*
X32511206Y-36427511D01*
X32500000Y-36376000D01*
X32500000Y-36178022D01*
X32519685Y-36110983D01*
X32572489Y-36065228D01*
X32641647Y-36055284D01*
X32705203Y-36084309D01*
X32710284Y-36089040D01*
X32820015Y-36171184D01*
X32820016Y-36171185D01*
X32947991Y-36218917D01*
X32947995Y-36218918D01*
X33004554Y-36224999D01*
X33525000Y-36224999D01*
X33545433Y-36224999D01*
X33545439Y-36224998D01*
X33602007Y-36218918D01*
X33729981Y-36171186D01*
X33729984Y-36171184D01*
X33839329Y-36089329D01*
X33921184Y-35979984D01*
X33921185Y-35979983D01*
X33968916Y-35852010D01*
X33974999Y-35795428D01*
X33975000Y-35795427D01*
X33975000Y-35750000D01*
X33525000Y-35750000D01*
X33525000Y-36224999D01*
X33004554Y-36224999D01*
X33025000Y-36224998D01*
X33025000Y-34775000D01*
X33525000Y-34775000D01*
X33525000Y-35250000D01*
X33974999Y-35250000D01*
X33974999Y-35204566D01*
X33974998Y-35204560D01*
X33968918Y-35147992D01*
X33921186Y-35020018D01*
X33921184Y-35020015D01*
X33839329Y-34910670D01*
X33722884Y-34823500D01*
X33725081Y-34820565D01*
X33687953Y-34783458D01*
X33681726Y-34754874D01*
X33680797Y-34756116D01*
X33615333Y-34780533D01*
X33593233Y-34780139D01*
X33545430Y-34775000D01*
X33525000Y-34775000D01*
X33025000Y-34775000D01*
X33025000Y-34724000D01*
X33044685Y-34656961D01*
X33080841Y-34625632D01*
X33725000Y-34625632D01*
X33726345Y-34628096D01*
X33753401Y-34607831D01*
X33796768Y-34600000D01*
X33847828Y-34600000D01*
X33847844Y-34599999D01*
X33907372Y-34593598D01*
X33907379Y-34593596D01*
X34042086Y-34543354D01*
X34042093Y-34543350D01*
X34157187Y-34457190D01*
X34157190Y-34457187D01*
X34243350Y-34342093D01*
X34243354Y-34342086D01*
X34293596Y-34207379D01*
X34293598Y-34207372D01*
X34299999Y-34147844D01*
X34300000Y-34147827D01*
X34300000Y-33146996D01*
X34319685Y-33079957D01*
X34372489Y-33034202D01*
X34441647Y-33024258D01*
X34505203Y-33053283D01*
X34523267Y-33072685D01*
X34567813Y-33132190D01*
X34682906Y-33218350D01*
X34682913Y-33218354D01*
X34817620Y-33268596D01*
X34817627Y-33268598D01*
X34877155Y-33274999D01*
X34877172Y-33275000D01*
X35750000Y-33275000D01*
X36250000Y-33275000D01*
X37122828Y-33275000D01*
X37122844Y-33274999D01*
X37182372Y-33268598D01*
X37182379Y-33268596D01*
X37317086Y-33218354D01*
X37317093Y-33218350D01*
X37432187Y-33132190D01*
X37432190Y-33132187D01*
X37518350Y-33017093D01*
X37518354Y-33017086D01*
X37568596Y-32882379D01*
X37568598Y-32882372D01*
X37574999Y-32822844D01*
X37575000Y-32822827D01*
X37575000Y-32650000D01*
X36250000Y-32650000D01*
X36250000Y-33275000D01*
X35750000Y-33275000D01*
X35750000Y-32150000D01*
X36250000Y-32150000D01*
X37575000Y-32150000D01*
X37575000Y-31977172D01*
X37574999Y-31977155D01*
X37568598Y-31917627D01*
X37568596Y-31917620D01*
X37518354Y-31782913D01*
X37518350Y-31782906D01*
X37432190Y-31667812D01*
X37432187Y-31667809D01*
X37317093Y-31581649D01*
X37317086Y-31581645D01*
X37182379Y-31531403D01*
X37182372Y-31531401D01*
X37122844Y-31525000D01*
X36250000Y-31525000D01*
X36250000Y-32150000D01*
X35750000Y-32150000D01*
X35750000Y-31525000D01*
X34877155Y-31525000D01*
X34817627Y-31531401D01*
X34817620Y-31531403D01*
X34682913Y-31581645D01*
X34682906Y-31581649D01*
X34567812Y-31667809D01*
X34489804Y-31772013D01*
X34433870Y-31813883D01*
X34364178Y-31818867D01*
X34302855Y-31785381D01*
X34274356Y-31741034D01*
X34243354Y-31657913D01*
X34243350Y-31657906D01*
X34157190Y-31542812D01*
X34157187Y-31542809D01*
X34042093Y-31456649D01*
X34042086Y-31456645D01*
X33907379Y-31406403D01*
X33907372Y-31406401D01*
X33847844Y-31400000D01*
X33725000Y-31400000D01*
X33725000Y-34625632D01*
X33080841Y-34625632D01*
X33097489Y-34611206D01*
X33149000Y-34600000D01*
X33225000Y-34600000D01*
X33225000Y-31400000D01*
X33102155Y-31400000D01*
X33042627Y-31406401D01*
X33042620Y-31406403D01*
X32907913Y-31456645D01*
X32907906Y-31456649D01*
X32792812Y-31542809D01*
X32723266Y-31635710D01*
X32667332Y-31677580D01*
X32597640Y-31682564D01*
X32536318Y-31649078D01*
X32502833Y-31587754D01*
X32500000Y-31561398D01*
X32500000Y-31124000D01*
X32519685Y-31056961D01*
X32572489Y-31011206D01*
X32624000Y-31000000D01*
X43000000Y-31000000D01*
X47000000Y-31000000D01*
X47000000Y-36500000D01*
G37*
G04 #@! TD.AperFunction*
G04 #@! TA.AperFunction,Conductor*
G36*
X30943039Y-25519685D02*
G01*
X30988794Y-25572489D01*
X31000000Y-25624000D01*
X31000000Y-26750000D01*
X32126000Y-26750000D01*
X32193039Y-26769685D01*
X32238794Y-26822489D01*
X32250000Y-26874000D01*
X32250000Y-27099596D01*
X32230315Y-27166635D01*
X32177511Y-27212390D01*
X32108353Y-27222334D01*
X32044797Y-27193309D01*
X32038319Y-27187277D01*
X32002928Y-27151886D01*
X32002923Y-27151883D01*
X31882965Y-27090760D01*
X31882966Y-27090760D01*
X31783456Y-27075000D01*
X31750000Y-27075000D01*
X31750000Y-27601000D01*
X31730315Y-27668039D01*
X31677511Y-27713794D01*
X31626000Y-27725000D01*
X31500000Y-27725000D01*
X31500000Y-27851000D01*
X31480315Y-27918039D01*
X31427511Y-27963794D01*
X31376000Y-27975000D01*
X30825001Y-27975000D01*
X30825001Y-27983449D01*
X30840762Y-28082967D01*
X30901883Y-28202923D01*
X30901886Y-28202928D01*
X30987277Y-28288319D01*
X31020762Y-28349642D01*
X31015778Y-28419334D01*
X30973906Y-28475267D01*
X30908442Y-28499684D01*
X30899596Y-28500000D01*
X30334704Y-28500000D01*
X30267665Y-28480315D01*
X30221910Y-28427511D01*
X30211966Y-28358353D01*
X30240991Y-28294797D01*
X30293750Y-28258958D01*
X30312645Y-28252346D01*
X30421792Y-28171792D01*
X30502346Y-28062645D01*
X30547149Y-27934604D01*
X30547149Y-27934600D01*
X30550000Y-27904206D01*
X30550000Y-27775000D01*
X27450001Y-27775000D01*
X27450001Y-27904196D01*
X27452851Y-27934606D01*
X27497653Y-28062645D01*
X27578207Y-28171792D01*
X27687354Y-28252346D01*
X27706250Y-28258958D01*
X27763026Y-28299680D01*
X27788774Y-28364632D01*
X27775318Y-28433194D01*
X27726931Y-28483597D01*
X27665296Y-28500000D01*
X23624500Y-28500000D01*
X23557461Y-28480315D01*
X23511706Y-28427511D01*
X23500500Y-28376000D01*
X23500500Y-27466543D01*
X30825000Y-27466543D01*
X30825000Y-27475000D01*
X31250000Y-27475000D01*
X31250000Y-27074999D01*
X31216555Y-27075000D01*
X31117032Y-27090762D01*
X30997076Y-27151883D01*
X30997071Y-27151886D01*
X30901886Y-27247071D01*
X30901883Y-27247076D01*
X30840760Y-27367033D01*
X30825000Y-27466543D01*
X23500500Y-27466543D01*
X23500500Y-27145793D01*
X27450000Y-27145793D01*
X27450000Y-27275000D01*
X28750000Y-27275000D01*
X29250000Y-27275000D01*
X30549999Y-27275000D01*
X30549999Y-27145803D01*
X30547148Y-27115393D01*
X30502346Y-26987354D01*
X30421792Y-26878207D01*
X30312645Y-26797653D01*
X30184602Y-26752850D01*
X30154207Y-26750000D01*
X29250000Y-26750000D01*
X29250000Y-27275000D01*
X28750000Y-27275000D01*
X28750000Y-26750000D01*
X27845803Y-26750000D01*
X27815393Y-26752851D01*
X27687354Y-26797653D01*
X27578207Y-26878207D01*
X27497653Y-26987354D01*
X27452850Y-27115395D01*
X27452850Y-27115399D01*
X27450000Y-27145793D01*
X23500500Y-27145793D01*
X23500500Y-25624000D01*
X23520185Y-25556961D01*
X23572989Y-25511206D01*
X23624500Y-25500000D01*
X30876000Y-25500000D01*
X30943039Y-25519685D01*
G37*
G04 #@! TD.AperFunction*
G04 #@! TA.AperFunction,Conductor*
G36*
X51443039Y-18520185D02*
G01*
X51488794Y-18572989D01*
X51500000Y-18624500D01*
X51500000Y-19954161D01*
X51480315Y-20021200D01*
X51427511Y-20066955D01*
X51358353Y-20076899D01*
X51310722Y-20059588D01*
X51232413Y-20011101D01*
X51042315Y-19937458D01*
X51042309Y-19937456D01*
X50990001Y-19927677D01*
X50990000Y-19927679D01*
X50990000Y-20566988D01*
X50932993Y-20534075D01*
X50805826Y-20500000D01*
X50674174Y-20500000D01*
X50547007Y-20534075D01*
X50490000Y-20566988D01*
X50490000Y-19927679D01*
X50489998Y-19927677D01*
X50437690Y-19937456D01*
X50437684Y-19937458D01*
X50247586Y-20011101D01*
X50074260Y-20118421D01*
X49923608Y-20255757D01*
X49800754Y-20418443D01*
X49709890Y-20600921D01*
X49709885Y-20600934D01*
X49667471Y-20749999D01*
X49667472Y-20750000D01*
X50306988Y-20750000D01*
X50274075Y-20807007D01*
X50240000Y-20934174D01*
X50240000Y-21065826D01*
X50274075Y-21192993D01*
X50306988Y-21250000D01*
X49667472Y-21250000D01*
X49709885Y-21399065D01*
X49709890Y-21399078D01*
X49800754Y-21581556D01*
X49923608Y-21744242D01*
X50074260Y-21881578D01*
X50247584Y-21988897D01*
X50437678Y-22062539D01*
X50490000Y-22072320D01*
X50490000Y-21433012D01*
X50547007Y-21465925D01*
X50674174Y-21500000D01*
X50805826Y-21500000D01*
X50932993Y-21465925D01*
X50990000Y-21433012D01*
X50990000Y-22072320D01*
X51042321Y-22062539D01*
X51232416Y-21988897D01*
X51310721Y-21940412D01*
X51378082Y-21921855D01*
X51444781Y-21942663D01*
X51489643Y-21996227D01*
X51500000Y-22045838D01*
X51500000Y-35389782D01*
X51480315Y-35456821D01*
X51427511Y-35502576D01*
X51359815Y-35512721D01*
X51301175Y-35505001D01*
X51301158Y-35505000D01*
X50995000Y-35505000D01*
X50995000Y-35926000D01*
X50975315Y-35993039D01*
X50922511Y-36038794D01*
X50871000Y-36050000D01*
X50745000Y-36050000D01*
X50745000Y-36176000D01*
X50725315Y-36243039D01*
X50672511Y-36288794D01*
X50621000Y-36300000D01*
X49890507Y-36300000D01*
X49897729Y-36354869D01*
X49895251Y-36355195D01*
X49895135Y-36411182D01*
X49857239Y-36469881D01*
X49793623Y-36498774D01*
X49776231Y-36500000D01*
X49596686Y-36500000D01*
X49529647Y-36480315D01*
X49483892Y-36427511D01*
X49473397Y-36362743D01*
X49474999Y-36347841D01*
X49475000Y-36347827D01*
X49475000Y-36300000D01*
X47525000Y-36300000D01*
X47525000Y-36347841D01*
X47526603Y-36362743D01*
X47514199Y-36431503D01*
X47466589Y-36482641D01*
X47403314Y-36500000D01*
X47000000Y-36500000D01*
X47000000Y-35752155D01*
X47525000Y-35752155D01*
X47525000Y-35800000D01*
X48250000Y-35800000D01*
X48750000Y-35800000D01*
X49475000Y-35800000D01*
X49475000Y-35799999D01*
X49890504Y-35799999D01*
X49890505Y-35800000D01*
X50495000Y-35800000D01*
X50495000Y-35505000D01*
X50188833Y-35505000D01*
X50139541Y-35511489D01*
X50139534Y-35511491D01*
X50031348Y-35561939D01*
X49946939Y-35646348D01*
X49896490Y-35754537D01*
X49896489Y-35754539D01*
X49890504Y-35799999D01*
X49475000Y-35799999D01*
X49475000Y-35752172D01*
X49474999Y-35752155D01*
X49468598Y-35692627D01*
X49468596Y-35692620D01*
X49418354Y-35557913D01*
X49418350Y-35557906D01*
X49332190Y-35442812D01*
X49332187Y-35442809D01*
X49217093Y-35356649D01*
X49217086Y-35356645D01*
X49082379Y-35306403D01*
X49082372Y-35306401D01*
X49022844Y-35300000D01*
X48750000Y-35300000D01*
X48750000Y-35800000D01*
X48250000Y-35800000D01*
X48250000Y-35300000D01*
X47977155Y-35300000D01*
X47917627Y-35306401D01*
X47917620Y-35306403D01*
X47782913Y-35356645D01*
X47782906Y-35356649D01*
X47667812Y-35442809D01*
X47667809Y-35442812D01*
X47581649Y-35557906D01*
X47581645Y-35557913D01*
X47531403Y-35692620D01*
X47531401Y-35692627D01*
X47525000Y-35752155D01*
X47000000Y-35752155D01*
X47000000Y-31000000D01*
X43000000Y-31000000D01*
X43000000Y-20125321D01*
X47099500Y-20125321D01*
X47099500Y-21874678D01*
X47114032Y-21947735D01*
X47114033Y-21947739D01*
X47114034Y-21947740D01*
X47169399Y-22030601D01*
X47231837Y-22072320D01*
X47252260Y-22085966D01*
X47252264Y-22085967D01*
X47325321Y-22100499D01*
X47325324Y-22100500D01*
X47325326Y-22100500D01*
X49074676Y-22100500D01*
X49074677Y-22100499D01*
X49147740Y-22085966D01*
X49230601Y-22030601D01*
X49285966Y-21947740D01*
X49300500Y-21874674D01*
X49300500Y-20125326D01*
X49300500Y-20125323D01*
X49300499Y-20125321D01*
X49285967Y-20052264D01*
X49285966Y-20052260D01*
X49230601Y-19969399D01*
X49147740Y-19914034D01*
X49147739Y-19914033D01*
X49147735Y-19914032D01*
X49074677Y-19899500D01*
X49074674Y-19899500D01*
X47325326Y-19899500D01*
X47325323Y-19899500D01*
X47252264Y-19914032D01*
X47252260Y-19914033D01*
X47169399Y-19969399D01*
X47114033Y-20052260D01*
X47114032Y-20052264D01*
X47099500Y-20125321D01*
X43000000Y-20125321D01*
X43000000Y-18624500D01*
X43019685Y-18557461D01*
X43072489Y-18511706D01*
X43124000Y-18500500D01*
X51376000Y-18500500D01*
X51443039Y-18520185D01*
G37*
G04 #@! TD.AperFunction*
M02*
