M48
INCH,TZ
T1C0.0118
T2C0.0394
%
G90
G05
T1
X9843Y-7874
X9843Y-9449
X9843Y-10236
X9843Y-10630
X9843Y-11024
X9843Y-12205
X9843Y-14173
X10236Y-10236
X10236Y-10630
X10236Y-11024
X10630Y-10236
X10630Y-10630
X10630Y-11024
X11024Y-11417
X11024Y-15354
X11417Y-11417
X11417Y-12598
X11417Y-12992
X11417Y-13386
X11811Y-11417
X12205Y-12008
X12402Y-9055
X12402Y-9646
X12598Y-10236
X12598Y-12008
X12598Y-12598
X12598Y-12992
X12598Y-13386
X12992Y-7874
X12992Y-8661
X12992Y-11220
X12992Y-11614
X13780Y-15354
X13976Y-9252
X13976Y-13386
X14961Y-9646
X15354Y-10039
X16142Y-15354
X16535Y-7874
X16535Y-9843
X16535Y-11417
X18602Y-14961
X18799Y-15354
X19094Y-15354
X19390Y-15354
X20079Y-13780
X20079Y-15354
X20472Y-14173
X20472Y-14567
X20472Y-14961
X20965Y-14567
X21358Y-14567
X21555Y-15354
X21850Y-15354
X22146Y-15354
X22343Y-14961
T2
X18976Y-8268
X19976Y-8268
X20976Y-8268
X21976Y-8268
M30
